<svg xmlns="http://www.w3.org/2000/svg" id="svg-4fc58235-89e6-414c-83fa-78ce48be87c5" width="100%" height="100%" class="injected-svg" viewBox="0 0 540 508"><g xmlns="http://www.w3.org/2000/svg" id="shape-svg" fill="#4c85d3"><defs><style></style></defs><g id="Слой_2" data-name="Слой 2"><g id="Слой_1-2" data-name="Слой 1"><path d="M436.91 340.16a11.33 11.33 0 0 1-.41 1.36 8.39 8.39 0 0 0 .41-1.36ZM435.29 337.59c0-.13.07-.29.11-.44s0-.28 0-.48Z" class="tmp-cls-1"/><path d="M437.81 329.93c-.61 2.46-1.66 4.46-1.57 3.49-.35 1.82-.64 3-.84 3.73 0 1.23-.06 1.53.33 2.09a10.77 10.77 0 0 1-1.87 4.75c-.59.73-.77.57 0-1.41 0 0-.25.64-.67 1.52s-1 2-1.63 3.15c-1.25 2.21-2.64 4.28-2.64 4.28l1.82-2.38c.9-1.21 1.75-2.5 1.75-2.5-.09.94-1.49 3-3 4.87s-3 3.75-3.36 4.86l1.12-1.35c.65-.79 1.48-1.86 2.29-2.95 1.63-2.17 3.13-4.54 3.13-4.54l-.07.63c.63-1.2 1.54-2.89 2.4-4.5a25 25 0 0 0 1.9-4.89 2 2 0 0 1 .1.58 4.8 4.8 0 0 1-.1.8 13.83 13.83 0 0 0 .45-2.36c1.78-6.88-1.06-1.45 1.23-10.32a23.58 23.58 0 0 1-.77 2.45ZM442.63 320.22l.09-4.5 2-7.06c-.31-.16.61-5.43-.52-2a29.07 29.07 0 0 1-.64 3.17c-.54-1 1.87-9.58.6-7.66-1.1 5.69-1.5 6.5-1.73 10.12a103.7 103.7 0 0 1-3.43 11.14c-.31 1.55.1 1.89-.34 3.85.1-.43.2-.83.33-1.32l1.19.11a40.57 40.57 0 0 1 1.2-5l-1 8.65c1.85-2.36 3.45-10.7 4.71-13.88-1.99 3.85.39-3.31-2.46 4.38ZM88 250.79s-.06-.07-.13 0v1.92-.05c.13-.66.13-1.29.13-1.87ZM100.1 195l-2.76 9c.11-1.3-1.33 3-1 1-.19.69-1.2 3.89-.73 3.09l.62-1.81c-.7 5 .48 2.24-1.33 10.25a33.79 33.79 0 0 0 2.85-9.53l.7-2.35 1.55-7.72ZM295.6 434.25l.4-.31c-.49.16-2.39.31-.4.31ZM453.89 262.05c-.08.42-.18.89-.25 1.27a9.43 9.43 0 0 0 .25-1.27ZM182.81 96.5l1.76-1.38ZM238.8 71.85a19.1 19.1 0 0 0-3.66.84l1.86-.46ZM451.21 232v-.13c-.05-.2-.09-.36-.14-.58ZM346.09 90.51c.47.32 1 .67 1.75 1.09a6 6 0 0 0-1.75-1.09ZM234.47 72.86h.23l.44-.15ZM161.18 107.88l-1 1a10.11 10.11 0 0 0 1-1ZM112 174.38l-1.28 3.07a30.27 30.27 0 0 0 1.28-3.07ZM158.91 112.91c-.11.16-.22.31-.29.43.38-.34.45-.48.29-.43ZM447.39 282.26v-.2l-.12-.1ZM447.59 290.43c-.15.93-.31 1.9-.47 2.85.22-1.05.38-2.08.47-2.85ZM387.05 116.92c.63.64 2.1 2.14 1.23 1.67 1.46.88 1.77.31-1.23-1.67ZM446.94 298.21c.77.59-1.09 6.73-1.54 9.52.67-1.95.31 1.12.75.59a45 45 0 0 1 1-5.32c.62-.95.09 2.54-.69 5.19 1.24-3.2-.34 4.34 1.13-.24 2.06-10.08 3.2-17.29 3.22-24.62a126.44 126.44 0 0 1-3.26 16.87l-.3-2.13c1.77-5.15 2-8.53 3-13.76 0 0-.66 2.92-1.31 5.84s-1.39 5.82-1.39 5.82c-1.78 5.34-1.13 1.65-.36-2.69a9.41 9.41 0 0 1-.66 2.25c.13.57-2.04 12.98.41 2.68ZM446.39 280.17c.01-.1 0-.08 0 0ZM126.53 144.65a.37.37 0 0 0-.18.1c-.22.5-.06.25.18-.1ZM381.86 109l2.44 1.7a26.48 26.48 0 0 0-2.44-1.7ZM417.94 153l-1.32-1.66-.33-.27a15.14 15.14 0 0 0 1.65 1.93ZM282.88 80.16a10 10 0 0 0-2 .08 9.3 9.3 0 0 0 2-.08ZM452.91 265.72v.49-.49ZM141.71 8.64h.01v-.01l-.01.01z" class="tmp-cls-1"/><path d="M454 248.28c-.35-4-.43-6.77 0-6.66-.17-1.79-.28-2.38-.42-3.25-.06-.42-.13-.91-.18-1.61V234.54a9.34 9.34 0 0 0-.1-1.62c-1.06-3-1 .32-2.64-6.63 0 0 .18 1.39.37 2.77l.24 2.81c.15.59.28 1.14.42 1.7a6.63 6.63 0 0 1 .16 1.16c0 .26.06.53.09.82v-.85a15.27 15.27 0 0 0-.27-2.42c-.21-1.45-.43-2.9-.43-2.9.78 3.68 1 2.84 1.71 4.08.08 2.09.14 3.8.2 5.27s.07 2.49.1 3.51c0 2.1 0 3.77.23 6-.89-2.63-1.45-6.94-1.89-5.22a15.24 15.24 0 0 0-.57-4.28 14 14 0 0 1-.34-1.89 11 11 0 0 1-.05-1.19v-.73c0-.26.06-.81 0-1.22a12.65 12.65 0 0 1 .26 1.31 10.92 10.92 0 0 0-.29-1.8c-.08-.42-.16-.8-.22-1.14-.12-.69-.18-1.26-.24-1.81a13.83 13.83 0 0 0-.82-3.75c.19.23.19-.24.19-.69-1.9-7.24.13 2.25-2.22-4.85-1.57-6.38.57-2.37.43-4.21 1.95 5.23 2.09 5.19 2.41 5.16s.67.05 2.18 6.09c.92-.18.27-5.14-1.62-11.44.74 4.21-2-2.24-1.22 3.37a40.8 40.8 0 0 0-3.78-8.64 41 41 0 0 1-3.5-9.39l.22.19-2.16-3.78-1.74-5.63c2.24 3 3.4 7.41 4.93 10-1.57-7.15-4.37-8.71-7.19-16.38-1.35-6.75 3.55 7.52 4.47 7.18-.84-1.47-2-5.8-1.53-5.41 2.42 7.31 2.26 4.11 4.83 12.43-1.8-3.85-.06.72-.73.12.73 1 3.73 8.7 5.21 14.48 1.06 1.1-.89-5.13-1.85-8.69-3-6.37-4.35-13.44-7-18-2.66-6.75.43-.75.36-1.19-2-6.19-1.54-2.43-2.43-4.31-3.8-9-2.84-10.4-4.63-16.84a19.26 19.26 0 0 1-.89-2.27c-.07-.22-.15-.44-.22-.67s-.22-.77-.34-1.17c-.27-.85-.43-1.77-.8-2.65l-5.7-7.45-5.53-7c-1.93-2.25-3.82-4.43-5.53-6.41 1.08.72.37-.5.15-1.16-2.64-1.81-3.46-2.39-4.38-3.16s-1.92-1.73-5-4.09l2.2 2.43C408 133.73 409 135 409 135a70.84 70.84 0 0 0-5.54-4.75 46.19 46.19 0 0 1-5-4.81c4 5.06-6.86-4.93-10.21-6.86-3.94-3.58-8.76-6-10.77-8.18l.63.36-3.11-2.21c-.78-.56-1.58-1.1-2.19-1.48l-1-.65 1.41-.48a41.09 41.09 0 0 0-6.66-3.94c-1.9-.84-3.07-1.16-2.36-.56-4.72-3-1.79-1.5-2.24-2.36 1.47.62 3.81 1.54 5.93 2.55s4 2.23 4.55 3.13a5.46 5.46 0 0 0-1.64-1c6.1 4 7.15 4.58 7.67 4.3s.26-1 3.39.91c-3.14-2.19-5.15-4.36-8.83-6.21-.83-.47-2.92-1.68-5.3-2.87s-5-2.4-6.82-3.17a42 42 0 0 1 10.4 6.5c-3-2-3.78-1.71-6.25-3.5l1 .31-3.57-1.54c-.12-1-9.28-5.15-3.67-3.19-4.77-2.26-1.88-.3-6.27-2.22l4.16 2.24 4.13 2.27-.48.56c-3.28-1.14-3.77-2-7.16-3.66l-.07.88s-1.42-.91-2.87-1.75l-2.9-1.72c.54.82-4.05-1.5-5.44-1.9-3.31-1.66-.58-2-6.74-3.61l.4.23c-3.49-.95-5.5-1.65-10.36-3.37a13.4 13.4 0 0 1 2.38.45c-6.71-2.84-18.28-4.39-21.24-6.22.71-.5 3.58.55 3.9-.13 5.36 1.7 7.26 2.11 9.51 2.31s4.71.64 10.91 3c0 .88 2.71 1.61 5.64 2.42s6 1.92 6.87 3.11c-4.68-2.27-11.5-3.63-10.69-3.15a119.14 119.14 0 0 1 13.63 5.49c-2.45-1.66-1.24-2.14.94-1.76C339.81 86 327 80 316.33 77.09l.93 1.28c-9.32-1.78 1.38-.68-5.81-2.51h-3.36l-.43-.19-2.75-.17-2.75-.07c3.77.67 2.2-.39 6.22.95 3.57 1.16-.33.68-1.48 1-2.4-.92-11.39-2.28-5.75-1.93l-5-.41-5-.23c.12-.35 2.29-.2 3.33-.24l-3.58-.43c-1.78-.23-3.57-.39-3.57-.39l.28-.11c-5.81-.23-13.88-.81-18.32-.15 4.9.46 3.71.69 1.43.76s-5.69.28-5.27.55c-3.49-.13-4.64-1.85 2.91-2.45 2 .51 7.19.1 11 .27a58.8 58.8 0 0 0-10.29-.31c2.74-.41-5.11-.64-5-1 .51-.28 2.14-1.1 7.13-.68 7.42.43.73.93 2.93.89 1 .53 3.54.59 6.43.69s6.11.26 8.33.65c.45.14-1 .06-1.75.06 3.86.34 11.86 1.57 12.53 1.08 0 0-2.39-.38-4.8-.57l-4.81-.43c-2.06-.5 3-.15.08-1-2.19-.19-4.84-.29-7.68-.75l.54-.15a74.11 74.11 0 0 0-10.57-1c-3.9-.09-7.91-.07-11.3.16-1.49 1.5-5 2.39-7.81 4.13a205.82 205.82 0 0 0-30.62 4.3c.23.26.21.57-.22.93-3 .34-8.21 2.17-8.27 1.41-2.91 1.59-11.31 5.08-9.41 5.21l-1.1.48a48.27 48.27 0 0 0-7.34 1.84c-1.53.53-3.22 1.16-5.16 1.94l-2.06.86-.55.23-.44.41-.91.85c-.74.69-1 .85-1.41 1.25l-1.29 1.07c-1.39 1.15-1.31 1.68-.55 2-1.69 1.09-3.31 2.06-4.89 3.13a24.67 24.67 0 0 1 3.68-3.71s-2.88 2.23-6 4.18c-1.54 1-3.1 1.91-4.28 2.56l-1.37.67-.79.41.23-.18.27-.21.16-.15.39-.41-.84.55A8 8 0 0 0 168 106c-1 1-1.23 1.35-1.62 1.78l-.62.64 2.08-2c.57-.45 1-1.12 1.67-1.36l1.7-.82c1.34-.59 2.27-.88 1.92-.26l-1 .66-.48.3-.64.37c-.49.28-1 .53-1.45.81l-1.16 1.03-.88.85c-.23.22-.46.45-.7.65l-1.4 1.23a73.37 73.37 0 0 0-5.72 5.2c-.76-1.07-2.45 0-1.37-1.81a5 5 0 0 1 .58-.36 92.82 92.82 0 0 1 6.48-7.54c-4.35 3.72-6.31 5-8 6.35s-3.21 2.42-8 5.89c-.65 0 1.44-1.83 3.29-3.41s3.47-3 2.29-2.41c0 0 2.17-1.48 4.14-2.93s3.82-2.93 3.82-2.93a17.07 17.07 0 0 0-1.75 2c1.19-1.14 2.17-2.09 3-2.94l1.88-1.81a7.89 7.89 0 0 1 2.68-1.76l.93-.51.62-.35c.41-.25.82-.51 1.24-.8a21.83 21.83 0 0 0 2.6-2.09c2.83-1.4-3.8 3.11-.84 1.38a29.69 29.69 0 0 0-3.21 2.61l-.33.32-.72.51-1.26.93a23.82 23.82 0 0 0-1.49 2.05c.64-.58 1.22-1.15 1.77-1.61l1.77-.92c.2-.1.39-.21.56-.31l.35-.2.6-.39a7.13 7.13 0 0 0 1.38-1.25 16.41 16.41 0 0 1 3.71-3.43l2.17-1.13 2.16-1.23c2.2-1.9-1 .28-1.26.19a39.12 39.12 0 0 1 3.21-2.47l1.29-.93.64-.51c.32-.27.84-.78 1.29-1.21l-1.12.93a5.47 5.47 0 0 1-.76.5c-.41.24-.74.36-.67.11l.64-.45.32-.23.08-.06.21-.19.31-.28 1.23-1.09c.21-.18.4-.38.62-.54l.76-.32 4.46-1.88a29.8 29.8 0 0 1 7.15-2.14c-2.79.53 2.47-2.38 4.5-3.34l-4.84 1.31-3.34.92-1.49.49-4.13 1.95-2.91 1.34-.86.4a3.76 3.76 0 0 0-.71.62L184 89.41l-1.46 1.36-1.22 1c-.81.68-1.67 1.35-2.54 2-1.74 1.31-3.59 2.6-5.59 3.92-1 .65-2 1.31-3.11 2l-.8.48-.52.3-1 .52c-1.38.54-2.33 1.78-3.42 2.8l.77-1.3-1.23 1.09-.59.49-1.1.93-2.1 1.66c-1.3 1-2.47 2-3.48 2.82a55.94 55.94 0 0 0-4.85 4.57c-1.38 1.44-2.69 2.9-4.56 4.75s-4.35 4.14-7.84 7.78c-.58-.18-2.16 1.59-3.53 3.34s-2.51 3.5-2.69 2.91a29.2 29.2 0 0 0 2.68-3.83c0-.27-.64.15-1.38.73-1 1.6-1.68 3-2.6 4.82l-1.42 2.72c-.51 1-1.15 2-2 3.29.63-2.19-2.35 2.19.38-3-4.24 7-6.24 10.87-7.42 15-5.38 11.95-2.88 2.82-8.45 14.76l.52-1.91-3.54 7.43 1.66-2.2-1.85 4.51c-.91 2.26-1.81 4.52-1.81 4.52-2 5.67 1.61-1.94 1.68-1l.18-2.14c1.82-3.49 3.75-8.69 4.58-9.19-2.75 5.78-1.56 4.65-2.39 7.08l2.43-5.59 1.39-1.52c2.76-5.37 5-9.4 6.19-12.86-1.43 2.07-1.45 3.82-2.85 5.61.53-3.07 4-9.69 7.24-16.15.29-.06 1.48-2 1.17-1.1a12.1 12.1 0 0 1-1 1.88c.64-.28-1.11 3.39 2.45-2.44-.65 2.47-2.11 7.44-1.83 7.39-1.77 3.54-4.33 8.47-6 11.18v-.29c-1.7 3-4.41 9.8-5.25 10-.81 2-3.21 7.28-.22 2.12l-2 4.5c-1 2.25-1.93 4.51-1.93 4.51-.41-2-4.53 6.32-1.3-2.94-.11.24-1.05 2.45-2.52 6.08.66-3.48-1.7 1-3.87 6l.12 1.45c-2.19 4.12-3.76 6.52-5.73 12.44 0 0-.63 3.65-1.27 7.29l-1.06 7.3c-.4 1.35-.76 2.73-1.09 4.12-.91 1.71-2.4 7.93-2.46 5.31-.48.54 0-1.57.88-4.23.2-.38.06.3.27-.1-.19-.88-.57-1.36-2 1.81a35.77 35.77 0 0 0 1.71-6.19s-.29.83-.55 1.67l-.54 1.68c1.29-5.06 2.95-13 2.39-13 .22 1.77-1.55 4.73-2.58 7.38.51-2.12 1.5-6.66.32-3.32-.11 1.3-2.53 10.61-.17 4.2a88.14 88.14 0 0 1-2.46 9.75c.67-3.81-.31-1.45-.55-2.64-.49 3.43.16 3.48.28 4.09-1.55 4.66-2.94 7.88-4 11.36a58 58 0 0 0-2.73 12.68c-.15 1.46.91-6.69 1.27-5.55a42.12 42.12 0 0 1-1.58 9.08c-.33 1.22-.67 2.41-1 3.73l-.21 1c-.07.45-.15.9-.23 1.37a11.5 11.5 0 0 0-.09 2.17v1.23s.23-.48.47-1c0-.13.11-.21.17-.38l.2-.5.15-.57c.05 1.21.15 3.25.25 5.36.1 1.95.21 3.95.28 5.27-.34.64-.43 8.6-1.11 2.76a32.53 32.53 0 0 0 2.33 12.54l1 2.51.6 1.45a15.1 15.1 0 0 0 1 2.39c.59 1 1.26 2.07 2 3.32.57 1 1.11 2.16 1.75 3.52a53 53 0 0 0-2.43-5.17c-.28-.53-.55-1-.84-1.57a8.67 8.67 0 0 1-.8-2.05c-.27-.91-.38-1.21-.54-1.86s-.34-1.23-.49-1.93c2.08 5.95.63.81 1.42 1.33a11.55 11.55 0 0 0 .33 1.82c.13.49.27 1 .42 1.52a14.18 14.18 0 0 0 .71 1.49l1.63 3.19c.77 1.69 1.05 2.35-.67-.24 1.73 3.26 4.58 10.36 5.54 12l-.46-1.66-.48-1.63c2.08 5.18 4.43 10.42 5.84 12.47-2.45-6.79-3.39-6.25-6.6-14.48-3.24-8.92 1.55 1.81-.17-4.27l-1.78-2.88c-1-1.44-1.79-2.6-2-3.1l1.58 3.13A4.25 4.25 0 0 1 89 298c-.14-.22-.28-.46-.42-.71l-.8-1.45a30.22 30.22 0 0 1-.97-2.84c-.81-3-1.24-5.57-1.72-5-.31-4.24-.38-6.8-.51-9.47a71 71 0 0 1 .24-9.53c-.39-2-.4 1.07-.4 3.45a26.75 26.75 0 0 0-.49-4.45 14.42 14.42 0 0 1-.18-2.15 10.67 10.67 0 0 1 .13-2.26c.16-.87.26-1.23.45-2 .26-1.39.1-1.63-.21-.91a10.35 10.35 0 0 0-.55 1.79 13.85 13.85 0 0 0-.34 1.92v2.21-2c0-1 .2-1.76.23-2.2.14-1 .27-2.1.4-3.17.28-2.12.51-4.32 1-6.63l-.76 2.32c-.35 1.18-.69 2.35-.69 2.35l.34-2.48c.21-1.24.41-2.47.41-2.47l-.56 2c-.25 1-.49 2.06-.49 2.06 1.29-9.49 3.78-20.22 6-24.82-.75 4.1-1.73 9.46-2.63 14.42-.72 5-1.33 9.58-1 12 .53-1.75.17-6.62 1.6-8.79l-.22-2.59c.35-2.87 1.51-9.48 2.32-9.88a76.93 76.93 0 0 0-1.17 14c.14.05.08.77-.08 1.9v.12-.07c-.39 2.33-.93 6.14-1.06 8.33-.52 2.72-.64.78-.74.47q-.18.87-.36 1.71a10 10 0 0 0-.23 2.45v3.19c.1 2.09.3 4.12.57 6.19l1.93 13.67c-.27.11 0 2.24.35 4.09.38 2.29 1.52 4.26.44 2.63.43.8.83 1.56 1.21 2.29l.85 1.45c.52.93 1 1.77 1.52 2.55 1 1.55 1.87 2.95 2.78 4.5-.16.9 2.9 7.81 1.36 5.46l1.29 2.2c.63 1.13 1.27 2.25 1.27 2.25.86 3.4 3.62 10.29 3.44 11.69 1.45 3.7 1.21.75 2.74 6.06-.21-.19-.15.25-.5-.85a46.14 46.14 0 0 0 4.21 10.55c-1.25-3.76-.29-.89-1.78-5.34.38 0 2.65 4.69 4.52 9.77-1.89-3.17-1.51-1.76-.88.09s1.67 4.1.68 2.64c.62 1.34 1.28 2.58 2 3.76l1.13 2a19.46 19.46 0 0 0 1.49 1.88l4.11 4.75c2.66 3.07 5.23 6.06 8.26 9.73 3.22 4.57 7.08 9.87 11.82 14.2a45.37 45.37 0 0 0 7.51 5.54c2.47 1.35 4.69 2.35 6.71 3.25l-1-.58 4.78 2c2.61 1.42-.42.86 3.76 2.84-1.79 0-7.11-3.67-11.62-5.45 3.41 2.32 1.64 1.59-.43.68s-4.57-2.22-2.19-.42c3.63.08 15.36 8.09 22.1 10.56 6 3.34-3.13-.82-.14.84l2.2.55c2.36 1.38 3.09 1.94 2.86 2.23a114 114 0 0 0 20.12 8.82c-7.43-2.94 2.78.39-4.39-2.86 2.29.73 7 2.69 11.53 4.52-4.43-1.56 5.36 3.52-4.16-.76 1 1.37 4.81 1.87 9.09 3.68-2.34-.57-7.42-2.1-7-1.83 3.45.81 8.61 3.07 13.38 4.94s9.12 3.44 10.54 3.47c5.14.7 12.92 2 19.21 2.35a7.31 7.31 0 0 0 1.44.3l1.18.17 2.34.28 4.83.42c3.28.25 6.66.46 10.07.79l-1.24.24c3.85.46 9.9.54 15.63 1l1.25.68c4 0 11.4.12 17.48.08.06-.36-5.54-.29-2.89-.74-3 0-5.58 0-4.51.45-3-.09-3.12-.68-5.58-1l5.82-.06 5.83-.19a3.93 3.93 0 0 1 1.33.15l.84-.68c3-.08 3.9.06 3.4.35a57.62 57.62 0 0 0 7.7-1c2.23-.4 4.51-.67 8-1a32.17 32.17 0 0 1-9.63 1.82l3.95-.28c2-.11 3.95-.35 3.95-.35-1.77.57-6.09.92-9.66 1.35s-6.42.59-5.23 1.06c4.36-.31 9.72-.86 14.9-1.69a114.73 114.73 0 0 0 13.86-3.1 35.49 35.49 0 0 0 7.28-1.4c2.72-.91 5.77-1.85 9-2.82.92-.16 2.93-.7 1.87.05l-1.77.69c2.12-.76 4.31-1.55 6.48-2.44s4.26-2.07 6.34-3.14 4-2.44 5.89-3.63a19.86 19.86 0 0 0 2.8-2 20.33 20.33 0 0 0 2.4-2.43 22 22 0 0 0 1.78-1.43c.86-.76 1.64-1.6 1.64-1.6a22.6 22.6 0 0 0 2.62-5.3c.18-.6-.11-.39-.41-.21s-.61.35-.47-.31a21 21 0 0 1 2.15-5c1.41-2.16 11.54-10.86 12.34-10.62 1.92-1.58 2.83-2.24 2.77-2.84-1.84 1.29-5.6 4.54-3.77 2.32 3.43-3 5.45-3.95 8.38-6.12-.12.25-2 2.14-.91 1.23 3.5-2.77 8.79-6.48 13.71-10.74s9.19-9.29 11.19-13.19l-2 3a16.62 16.62 0 0 1-2.94 3.31c-.22-.32 1.44-1.94 1.92-2.8-.85 0-2.66 3.7-6.42 6.33l.81-.87 1.69-2c.63-.71 1.19-1.48 1.62-2l.71-.94a56.64 56.64 0 0 0 7.61-10.35s9.67-11.05 9.67-16.58c8.29-27.63 13.82-52.5 16.58-77.37a74.52 74.52 0 0 0-1.31-12 45.11 45.11 0 0 1 1.31 17.05c-.1-.27-.07-1-.24.16-1.11 7.45-.29 10.62-1.91 16.5l-.28-.82c0 .51-.32 4.1.26 3.48.74-5 .69-6 1.52-10.49a50.76 50.76 0 0 1-.75 8.9l.66.45c.09 3.93-1.76 7.57-1.78 11.46l1.37-4.31c0 .13-.05.48-.08.77a23.51 23.51 0 0 0 .47-4.26c.84-6.73 2.38-10 2.94-11 .74-3.11.74 1.27 1.24 1 .63-5.1-.21-4.92.31-10 .26-1.23.35-.9.36-.36v-3.33a7 7 0 0 0 .33-1.37l.26-1.53c0-.55 0-1.11.06-1.62.06-1.71.18-2.72.57.14a16.26 16.26 0 0 1-.05 2.11c-.08.64-.17 1.33-.24 1.93.08-.44.17-.9.26-1.38a9.37 9.37 0 0 0 .21-2.16c.05-1.21.05-2.36 0-3.55-.01-2.42-.2-4.74-.32-6.74Zm-52.77-114.13a2.57 2.57 0 0 1-.83-.52c2.86 2.68 4.35 4.2 5.69 5.59s2.65 2.54 4.73 4.86l-1.55-1.18c.27 1.23 4.19 4.51 7.35 8.47 1.15 1 3.52 3.31 4.35 5.19l-.79-.37a18 18 0 0 0 2.07 3.42c.57.85 1.31 1.82 2 2.91.31 1.26.63 2.61 1 4l-.71-1.52c-.2-.8-.41-1.6-.59-2.41a184.63 184.63 0 0 0-34-36.87c3.57 2.55 7.32 5.34 11.28 8.43ZM303.9 83.56c2.94.29 6.71.42 11.44 1.12l-.29.06 4.83 1.26 4.78 1.45-1.26-.06 2.88.62c1.45.29 2.87.68 2.87.68-.37.64 1.58.94 1.09 1.3 3 2.38 12.37 4.1 19.32 8.11l-1.25-.21c2.12.53 5.42 2.33 9 4.26 3.49 2.1 7.23 4.36 10.06 6.3h-.28c-2.79-1.49-4-1.82-3.8-1.37q-4.21-2.44-8.56-4.69a11.82 11.82 0 0 0-1.17-1c-1.11-.4-2.43-1-3.78-1.59l-.71-.3q-6.62-3.18-13.45-5.87a23.74 23.74 0 0 1 2.4.51l-2.82-1.09-6.28-2.15c-2.27-.83-4.62-1.42-6.35-2l-2.89-.86q-8.07-2.42-16.3-4.14c.62.03.46-.09.52-.34Zm-85.73.44.68.51c11.81-2.88 20.15-6.08 32.87-6.78-1.7.74-6.51.78-5.82 1.07 7.57-.48 6.44-2.26 14-1.62-10.71.57 6.67.1-2.95 1 13.42-1.67 27.68 1 36.34 2.19-2.14-.73 3.67-.14 3.93-.16 2.26.49 1.42.76-.41.44 4.4 1.21 5.06 1.9 4.22 2.29l-4.54-.81c-2.26-.39-4.55-.65-4.55-.65a33.61 33.61 0 0 1 3.9 1c-4.66-.78-9.34-1.36-14-1.79-.86-.21-1.3-.4-.88-.51-3.15-.11-7.78-.84-9.49-.83 3.3.5 2.59.6.74.69-1.68-.07-3.36-.09-5-.11 0-.19 1-.38-.78-.5h-3.68l-3.75.24 3.2-.05c1.6 0 3.2.05 3.2.05l-.76.29a172.1 172.1 0 0 0-45.85 6.22 37.9 37.9 0 0 1-7.78.28c2.49-.98 4.99-1.78 7.16-2.46Zm-36.32 19.68 2.64-2.27-.56.4c1.86-1.48 3.62-3 5.26-4.6.86 0 1.35.13 1 .65l-.76.7-.1.07a82 82 0 0 1-7.24 5.65c-.77.35-1.83.92-3 1.58Zm-7.53 5.21 4.42-2.4c-2.25 1.43-4.4 2.68-6.24 3.6l-.7.67a5.18 5.18 0 0 1 2.52-1.87Zm-38.21 33.84-.88.74c1.48-2.3 2.06-4.47 3.39-5.56-.09.26-2.11 5.82-3.89 10.73l-2.13 3.84c-1.13.93-4.84 6.06-9 12.24 3.82-7.21 8.17-14.62 12.51-21.99Zm-29.34 44.66a2.37 2.37 0 0 0 .12-.78c.51-1 .75-1.72 1-1.81l-1.16 2.88Zm-4.3 31.33-.14.48a26.69 26.69 0 0 1-1 2.8c.38-1.13.76-2.2 1.14-3.28Zm-6.09 19.73c.93-3.24 1.71-6.4 2.68-9.39-.51 2.25-.89 4.6-1.67 7.3.25-.68.5-1.42.74-2.17q-2 7.81-3.51 15.93a47.37 47.37 0 0 1 1.32-8.25c-.09.42-1 3.62-2 8.36v-1.64c.78-3.5 1.63-6.88 2.44-10.14Zm114 180.38 1.61.2c1.21.45 2.43.89 3.65 1.32-.25.24-.64.59-5.26-1.52Zm7.48 2.27 3.18 1a13.91 13.91 0 0 1-2.37-.58Zm229.56-174.32c-.11-.71-.23-1.42-.34-2.13.35 1.4.67 2.61.9 3.6Z" class="tmp-cls-1"/><path d="M238.83 74.64s-.77.17-1.54.39l-1.52.45a66.15 66.15 0 0 0 10.44-2.08c-.26.16.2.21 1.13.31 5.23-.57 8-1.6 5.22-1.89l-1.74.38-3.73-.39c-.64.66-3.65 1.22-7.24 1.72a89.62 89.62 0 0 0-10.58 2.05c3.89-1.23 7.18-3.22 12.54-3l-.65-.6c4.55-.75 8.32-.29 10.8-1.16l-5.31.58v-.38c-3.77.5-8.5 1.55-12 1.82-1.48.49-2.9 1-5 1.61s-4.65 1.4-8.65 2.21l.23-.19c-2.53 1.31-6.31 2.12-9.93 2.94s-7.13 1.6-9 2.69c-1.87 2 8.67-2.55 11.51-2.76-3.16 1.44-6.84 2-3.82 1.78-7.41 3.09-4.93.48-10.83 3.67l3.62-1.07c-2.57 1.6-7.31 3.08-9.77 4.92 0 .95 4.54-2.14 10-3.82l-2.11 1.54s2.53-1.24 5.1-2.36l5.24-2.13c2.85-2.08-.14-1.18 6.5-3.83 2.55-.26 4.42 0 4.94.57a37.16 37.16 0 0 1 6.16-2.11c2.88-.64 6.34-1.35 9.99-1.86ZM446.68 285.6c0 1.68-.89 5.72-.21 5-.57.02 1.3-7.23.21-5ZM445.3 291.66l-.11.64c.05-.25.08-.46.11-.64ZM446 287.28l-.84 3c.07.27.27.2.11 1.34ZM443.43 196.21a25.33 25.33 0 0 0 1.66 4.13c.29-.52-1.09-2.84-1.66-4.13ZM321.27 437c3.12-.61 7.28-1.18 11.4-2.28 4.14-.88 8.2-2.26 11.26-3.19s5-1.88 5-1.88c-9.19 3.5-18 6-32.86 8ZM381.52 112.45l1.26 1.5c1.83 1.21 3.42 2.24 4.91 3.17l4.1 2.77a85 85 0 0 1 8.72 6.63 63.22 63.22 0 0 0-5.61-5.14A74.361 74.361 0 0 0 390 118a80.23 80.23 0 0 1-9.81-7s.7.7 1.33 1.45ZM382 110.91c4.93 3.38 2.72 1 7 4.3l-1.61-2.29c.7 1.55-6.09-3.28-5.39-2.01ZM272.34 22.77l-3.94-2.12 2.97 1.87.97.25zM242.38 11.23l4.24 1.02-.39-.21-4.26-1.02.41.21zM221.45 75.9c6-1.17 4.9-1.89 8.51-2.79-6.8 1.55-8.27 1.54-16.27 4 6.31-1.54 7.98-1.8 7.76-1.21ZM230 73.11l2.39-.46c-1.04.16-1.78.35-2.39.46ZM208.36 78.72c.17-.6-5.1 1.47-3.94 1.12a36.22 36.22 0 0 1 3.94-1.12ZM236.65 82c-2.26.33-4.29-.27-6.1.82.67.18 4.51-.64 6.1-.82ZM191.91 87.36c0-.1-.3-.08-.9.15-.36.14-.55.22-1.31.57a20 20 0 0 0-2.8 1.47 10.09 10.09 0 0 1 2.78-1.1c.83-.22 1-.09.75.25.75-.47 1.57-1.14 1.48-1.34ZM222.49 84.59l2-.63s-1.24.29-2.46.66l-2.43.76.89-.07ZM131.82 133.46s.44-.89.93-1.7l1-1.62-1.47 1.86-1.37 2c.86-1.08.09 1.39.91-.54ZM130.38 134.81l.53-.79a8 8 0 0 0-.53.79ZM40.99 83.51l2.3-4.56-2.6 4.93.3-.37zM28.67 104.12l-.54.73-1.55 4.01.55-.75 1.54-3.99zM116.92 360.74l.86 1a12.62 12.62 0 0 0-.86-1Z" class="tmp-cls-1"/><path d="M164.53 406.61a44.33 44.33 0 0 1 7 3.64c.88 0-1.57-1.69-1-2-7.44-4.5-9.56-3.35-16.84-7.64.53-.29 3 .58-1.87-2l1.3.58a30.37 30.37 0 0 1-6.61-3.84 21.18 21.18 0 0 0-5.16-3l.58-.47c-4.2-2.27-10.22-8.94-12.93-12.66l.28.14a82.5 82.5 0 0 1-6.19-8.06c-1.07-1.57-2.15-3.47-6.11-8.7l2.1 2.22 2.11 2.3c-2.34-4-3.69-4.29-5.54-6.93.2.08.25-.51 1.3.58-.23-.26-.48-.56-.79-.9l-.8-.88-.44-.48c-.26-.3-.53-.61-.79-.93-1-1.48-1.47-2.31-2.12-3.27-2.42-3.84-4.46-7.82-4.46-7.82-2.21-3.69-.16 1-.16 1.75-1.16-1.27-3.75-8.52-3.42-9 .52.89 2.22 4.66 1.52 2.14l-3.16-5.19c-1.95-7.67 3.34 5.13 5.4 8.64-2.93-7.6-4.38-9.63-7.06-17.54a36.64 36.64 0 0 1 1.11 5.26c-.7.54-2.86-7.05-4.63-12.11.77 3.37-.16 1.58-1.27-.68a4.47 4.47 0 0 0-.43-.86c-.13-.26-.25-.51-.38-.76l.21.6c-.1 0-.16.16-.15.65 1.68 4.15 2.14 7.76 3.09 10.61.15-1.62 1 .78 2.13 4.06a83.8 83.8 0 0 0 3.46 9.29l.92 2.12c.45 1.05 1 2.11 1 2.11l.72 1.6c0 .38-.36 0-1.69-2.34 1.06 2 4.27 8.79 4.4 8l1.29 2.39.9 1.64a10.93 10.93 0 0 0 .73 1l.64.82c.51.67 1.07 1.35 1.6 2.09 2.16 2.87 4.29 6 4.29 6a8.72 8.72 0 0 1 .55 1.19c.37.4.47.43.49.34l1.64 2.41c1 1.55 2.58 3.82 4.57 6.6 4 5.49 10.4 13.64 19.94 19l11.2 6.03 9.76 5.17c5.74 3 9.65 4.92 9.65 4.92-3-1.61-5.51-3.25-8.57-5 5.03 1.67-5.07-2.81-3.31-2.83Z" class="tmp-cls-1"/><path d="M100.64 327.22c-.24-.86-.55-1.83-.95-2.94.31 1.1.66 2.04.95 2.94ZM180.76 416.61l-4.39-2.17c1.34.72 2.74 1.44 4.39 2.17ZM94.23 313.35s-.7-1.91-1.47-3.73-1.55-3.62-1.55-3.62c.73 2.59-1.29-1.62-1.73-1.91 0 0 1 2.14 1.91 4.36s1.79 4.55 1.79 4.55c.24-.18.88.62 1.05.35ZM93.67 315.82a10.57 10.57 0 0 1 1.33 2.25L93.18 313c-.18.08-.18.68.49 2.82ZM215.5 428l2.24.71c-1.02-.34-1.69-.55-2.24-.71Z" class="tmp-cls-1"/><path d="M244.12 436.74a11.87 11.87 0 0 1-1.31-.35 4.23 4.23 0 0 1-1.51-.73c-.1-.17 0-.32 1.59-.22-7.9-1.21-18.39-4.62-20.35-4.42.19-.08.19-.26-.91-.68l-4.72-.6 4.2 1.58a63.61 63.61 0 0 1-11.66-3.32 69.63 69.63 0 0 1-9.68-4.24c8.1 2.91 4.37.52 15.5 5-.43-.42-2.36-1.55.23-.81-13.4-4.23-24.62-9.75-37.78-15.33 9.72 5.75-6.9-2.67-4.2-.17l5.64 2.43h-.59l6.8 3.18c-1.19-1.1-2.22-1.62-1.7-1.93 9 4.45 2.6 1.89 9 5.55l5.21 2.2 5.28 2.09-.91-.2a6.52 6.52 0 0 0 1.64.49s8.93 3.49 18.27 6.13a172.1 172.1 0 0 0 19 4.33l1.2.15a7.77 7.77 0 0 0 1.21.1c.75 0 .86-.05.88-.11s.04-.04-.33-.12ZM313.69 437.23c.25-.07.33-.12.11-.1ZM307.56 438l1.5-.58-3.4.74-3.4.62s2.66-.05 5.35-.3L313 438l.71-.77a24.38 24.38 0 0 1-6.15.77ZM294.88 437.89l-.57 1.61c5.51-.3 5.19-1.21 2.19-1.49 5-.49 2.69.81 6.14-.16-.14-.59-6.35 0-7.76.04ZM173.43 367.18l1.52-.23-3.67-.37 2.15.6zM256 437l3.65.37a2.2 2.2 0 0 0-1-.75ZM274.67 438.66l-5.41-.45c1.57.15 3.29.33 5.41.45ZM265.16 437.85l4.1.36-4.21-.48Z" class="tmp-cls-1"/><path d="m266.15 438.8-1-.95-5.56-.53c.57.61 1.22 1.26 6.56 1.48ZM284.69 439.26c-.1.36 2.77.22 4.2.15-1.16-.06-2.8-.22-4.2-.15ZM383.85 398.81a9.61 9.61 0 0 0-1.74 1.28Z" class="tmp-cls-1"/></g></g></g><path xmlns="http://www.w3.org/2000/svg" id="icon-svg" fill="#fff" fill-rule="evenodd" d="M80.709 7.089c-8.136 2.146-24.108 6.579-35.495 9.85-21.959 6.308-24.953 7.89-23.313 12.321.641 1.733 3.86 3.16 16.199 7.18 8.47 2.759 15.512 5.063 15.649 5.12.137.058-.161 5.197-.661 11.421-.587 7.307-.56 12.084.078 13.484C55.138 70.794 69 78.304 81.169 81.638c8.731 2.391 28.021 2.439 36.831.092 8.77-2.337 24.367-10.117 27.05-13.492 2.043-2.571 2.134-3.404 1.496-13.687-.373-6.022-.761-11.353-.862-11.848-.142-.694 18.991-7.589 21.318-7.683.277-.011.571 6.168.654 13.73.187 17.003.858 19.64 5.105 20.059 2.872.284 3.215-.007 4.163-3.528 2.013-7.473 1.652-39.558-.464-41.314-2.838-2.356-71.5-20.774-77.46-20.779-1.925-.002-10.156 1.754-18.291 3.901m17.606.94c-.763.71-32.363 11.953-47.728 16.981l-6.914 2.262 28.079 8.487 28.079 8.488 27.334-8.241c15.034-4.533 27.457-8.349 27.607-8.479.15-.131-9.3-3.52-21-7.531-11.7-4.01-24.28-8.515-27.957-10.009-3.677-1.494-7.052-2.375-7.5-1.958M60.645 50.25c.918 12.601.678 12.142 8.124 15.57 12.321 5.673 27.13 8.006 39.731 6.261 8.813-1.22 21.268-5.031 26.124-7.993 2.997-1.828 3.154-2.258 3.846-10.568.397-4.764.505-8.878.241-9.143-.265-.264-9.204 2.274-19.864 5.64l-19.383 6.121-19.165-6.069C69.758 46.731 60.922 44 60.662 44c-.26 0-.267 2.813-.017 6.25M45.571 90.189c-9.353 10.926-14.199 26.692-13.283 43.219.98 17.687 7.04 31.146 19.627 43.592 13.256 13.108 26.01 18.802 44.182 19.729 22.121 1.127 41.602-7.233 55.614-23.868 16.741-19.874 20.466-48.508 9.295-71.437C156.969 93.137 151.377 86 148.923 86c-3.375 0-3.256 2.69.388 8.715 3.489 5.771 8.567 18.765 7.665 19.614-.262.246-4.301.076-8.976-.378-4.675-.454-11.23-.853-14.567-.888l-6.068-.063-1.8-5.75c-2.527-8.07-4.333-11.25-6.391-11.25-3.069 0-3.946 1.798-3.073 6.306.446 2.307.831 5.544.855 7.194l.044 3H99.5c-14.891 0-17.499-.224-17.494-1.5.003-.825.444-4.179.98-7.453 1.017-6.205.489-7.497-3.075-7.532-1.789-.017-3.384 2.934-5.939 10.985l-1.745 5.5-14.863 1.132c-8.175.622-14.993 1.018-15.15.88-.781-.685 4.543-14.386 7.495-19.289 1.852-3.075 3.232-6.291 3.067-7.146-.583-3.029-3.549-2.16-7.205 2.112m-4.362 38.925c.261 4.612 1.285 11.217 2.276 14.676l1.801 6.291 12.607-.664c6.934-.365 12.903-.946 13.266-1.29.362-.345.221-3.327-.314-6.627s-.831-8.754-.659-12.121l.314-6.12L59 122.6c-6.325-.362-13.022-.931-14.883-1.265l-3.382-.607.474 8.386m100.541-6.832-12.75.966-.011 8.626c-.006 4.744-.285 10.283-.62 12.308-.59 3.566-.503 3.699 2.761 4.203 1.854.287 7.707.79 13.008 1.12l9.638.599 1.71-4.802c.941-2.641 1.951-9.189 2.246-14.552.5-9.11.412-9.74-1.348-9.592-1.036.086-7.622.592-14.634 1.124M81.323 132.75c.343 4.813.917 10.213 1.275 12l.652 3.25h16.268c14.559 0 16.342-.184 16.969-1.75.386-.963.949-6.363 1.251-12l.549-10.25H80.701l.622 8.75M50 158.005c0 1.1 7.051 9.846 10.623 13.178 4.588 4.279 14.344 9.725 21.232 11.853 3.496 1.08 6.493 1.964 6.662 1.964.168 0-1.583-2.816-3.891-6.259-2.309-3.442-5.504-9.259-7.102-12.926l-2.905-6.667-8.559-.595c-4.708-.327-10.247-.768-12.31-.979-2.062-.211-3.75-.017-3.75.431m96.5-.42c-1.1.172-6.393.603-11.763.958l-9.764.646-3.473 7.517c-1.91 4.135-5.085 9.762-7.055 12.504-1.971 2.742-3.379 5.189-3.13 5.438.878.878 13.259-3.869 18.721-7.179 3.045-1.845 8.259-6.193 11.586-9.662 5.795-6.041 9.326-10.959 7.663-10.671-.432.075-1.685.277-2.785.449m-59.844 3.165C88.769 166.986 98.56 186 99.658 186c1.205 0 11.171-19.26 12.806-24.75l.671-2.25H99.599c-12.451 0-13.489.14-12.943 1.75" transform="matrix(.5 0 0 .5 222.5 125)"/><path xmlns="http://www.w3.org/2000/svg" id="SvgjsPath29838994" fill="#fff" d="m1 5.88.29-18.72 1.37.24q0 .52.03.76 1.34-.86 2.71-.86 2.22 0 3.46 1.91 1.25 1.9 1.25 4.32 0 1.22-.19 2.33-.18 1.11-.64 2.27Q8.81-.71 7.85-.01q-.97.69-2.33.69-1.3 0-2.49-.68.1 4.27.17 6.35-.22.75-.86.75-.44 0-.84-.35-.4-.35-.5-.87Zm1.88-16.13.07 7.88q.3.59.91.94.61.36 1.34.36.95 0 1.62-.61.68-.61.96-1.63.28-1.01.39-1.89.11-.88.11-1.86 0-4.15-2.81-4.15-.9 0-1.67.26-.77.26-.92.7Zm17.26.95-1.07-.08q-.52-1.36-1.74-1.36-.53 0-1.13.24-.6.25-.99.5-.39.26-1.03.75 0 .34-.01 2.22-.01 1.88.03 4.17.03 2.3.08 2.47-.22.73-.85.73-.44 0-.84-.35-.41-.36-.51-.87.47-7.84.84-11.84l1.09.24.08 1.64q1.71-1.42 2.93-1.42 1.34 0 2.25.61.92.61.92 1.79 0 .36-.05.56Zm1.03 4.1q0-.98.2-2.17.21-1.2.63-2.52.41-1.32 1.24-2.19.83-.88 1.93-.88 2.34 0 3.76 2.11t1.42 4.7q0 1.1-.24 2.18-.23 1.09-.72 2.14-.48 1.05-1.4 1.74-.91.7-2.14.8-2.24-.29-3.46-1.92-1.22-1.62-1.22-3.99Zm4.15-6.49q-.86.09-1.44 1.56-.59 1.46-.76 2.84-.17 1.38-.17 2.43 0 1.37.84 2.53.84 1.16 1.89 1.16.76 0 1.37-.59.61-.58.97-1.45.35-.87.53-1.75.19-.87.19-1.56 0-2-.91-3.49-.9-1.49-2.51-1.68Zm14.26-.57 1.17.22v.25q0 1.66.2 5.61.21 3.96.38 6.11-.49.19-.92.19-.4 0-.88-.12l-.2-.63q-1.56.87-2.98.87-1.05 0-1.82-.48-.77-.49-1.18-1.21-.42-.72-.66-1.78-.24-1.07-.3-1.93-.07-.87-.07-1.94 0-3.13.39-5.74l1.1.24q.17.81.17 1.76 0 .54-.06 1.86-.06 1.31-.06 2 0 1.19.11 2.06.11.87.42 1.69.3.81.94 1.25.63.44 1.58.44 1.08 0 2.32-.49.05-.9.1-4.62.05-3.73.25-5.61Zm12.84-6.39L52.1.63 50.76.37q0-.49-.03-.74-1.29.83-2.73.83-2.22 0-3.46-1.9-1.23-1.9-1.23-4.32 0-1.25.18-2.35.19-1.09.64-2.25t1.41-1.85q.97-.68 2.34-.68 1.34 0 2.51.66.2-2.59.2-5.23 0-1.19-.03-1.75 1.17.22 1.86.56ZM50.54-1.98l-.08-7.86q-.29-.61-.91-.96-.62-.36-1.33-.36-.95 0-1.63.61-.67.61-.95 1.63-.28 1.01-.39 1.89-.11.88-.11 1.85 0 4.15 2.78 4.15.93 0 1.7-.25.77-.26.92-.7ZM63.04.46l-1.37.27-.29-19.28q.68-.35 1.85-.57-.02.57-.02 1.76 0 2.64.19 5.23 1.18-.66 2.49-.66 1.37 0 2.32.64.96.65 1.42 1.77.46 1.13.66 2.27.19 1.15.19 2.49 0 1.47-.45 2.82-.45 1.36-1.56 2.37Q67.36.59 65.77.59q-1.37 0-2.71-.86-.02.25-.02.73Zm.29-10.2-.07 7.86q.14.44.91.7.77.25 1.67.25.86 0 1.43-.33.58-.33.87-.95.29-.62.4-1.31.11-.68.11-1.56 0-.9-.1-1.77-.09-.86-.39-1.9-.29-1.04-.95-1.67-.66-.64-1.63-.64-.71 0-1.33.35-.63.36-.92.97ZM82.3-2.37l.24 1.08q-1.07.39-3.18.86-2.11.48-3.14.48-1.05 0-1.83-.7-.78-.69-1.17-1.78-.39-1.09-.58-2.15-.18-1.06-.18-2.09 0-6.1 5.52-6.1 1.32 0 2.32.84 1 .85 1 2.19 0 .73-.4 1.29-.41.56-.98.89-.57.33-1.47.6-.89.27-1.57.39t-1.64.27q-.95.15-1.31.22.02.71.08 1.25.06.53.25 1.16.18.62.48 1.02.31.4.85.67.53.27 1.27.27.87 0 2.14-.16t2.26-.33q.99-.17 1.04-.17Zm-8.28-5.22q3.32-.95 5.45-2-.17-.81-.47-1.18-.29-.36-.87-.36-1.49 0-2.7 1.02-1.21 1.03-1.41 2.52Zm17.73-4.52-.12 1.05q-1.03-.15-1.76-.15-1.69 0-2.79 1.02-1.09 1.01-1.5 2.39-.4 1.38-.4 3.06 0 .78.1 1.4.1.61.35 1.19.26.59.81.92.55.33 1.35.33 1.08 0 2.74-.42.51-.19.8-.19.59 0 .71 1.36-2.15.69-3.98.69-2.66 0-3.6-1.31T83.52-5q0-1.71.23-3 .23-1.28.82-2.39t1.7-1.69q1.11-.59 2.72-.59 1.81 0 2.76.56Zm2.42 1.56-.49-1.24q.63-.64 1.61-1.02.97-.37 1.93-.37 4.12 0 4.12 7.13 0 .97-.11 2.88-.11 1.9-.11 2.85-.19.76-.75.76-.44 0-.81-.44-.37-.44-.37-.98 0-.17.03-.24Q97.71.24 96 .24q-1.3 0-2.26-.94-.97-.94-.97-2.28 0-2.27 1.77-4.1 1.77-1.83 4.02-1.83.1 0 .19.01.1.01.24.04.13.02.2.02-.19-2.85-2.27-2.85-1.22 0-2.75 1.14Zm5.1 7.64q.05-1.7.05-2.58 0-.74-.05-2.05h-.2q-1.73.02-3.16 1.29-1.43 1.27-1.43 3.08 0 .78.48 1.24.47.47 1.16.47 1.07 0 3.15-1.45Zm11.3-9.35 1.17.22v.25q0 1.66.21 5.61.21 3.96.38 6.11-.49.19-.93.19-.39 0-.88-.12l-.19-.63q-1.57.87-2.98.87-1.05 0-1.82-.48-.77-.49-1.18-1.21-.42-.72-.66-1.78-.25-1.07-.31-1.93-.06-.87-.06-1.94 0-3.13.39-5.74l1.1.24q.17.81.17 1.76 0 .54-.06 1.86-.06 1.31-.06 2 0 1.19.11 2.06.11.87.41 1.69.31.81.94 1.25.64.44 1.59.44 1.07 0 2.32-.49.05-.9.1-4.62.05-3.73.24-5.61Zm11.26.49-.25.98q-2.37-.98-3.68-.98-1.18 0-1.65.36-.48.35-.48 1.5 0 .93.67 1.54t1.63.96q.95.35 1.91.76.97.4 1.64 1.18.67.78.67 1.93 0 1.56-1.15 2.73Q120 .37 118.16.39q-1.34 0-2.51-.56-1.17-.56-1.86-1.42l.71-.73q.29.12.87.39.57.27.82.36.24.08.72.18.47.1 1.01.1 1.15 0 1.88-.52.73-.51.73-1.44 0-.61-.34-1.03-.34-.43-.9-.7-.56-.27-1.24-.51-.67-.25-1.34-.55-.67-.31-1.23-.73-.56-.43-.9-1.16-.35-.74-.35-1.74 0-1.46.8-2.45.79-.99 2.23-.99.56 0 1.27.17t1.12.32q.42.14 1.24.47.81.33.94.38Zm11.79 9.4.24 1.08q-1.07.39-3.18.86-2.12.48-3.14.48-1.05 0-1.83-.7-.78-.69-1.17-1.78-.39-1.09-.58-2.15-.18-1.06-.18-2.09 0-6.1 5.52-6.1 1.32 0 2.32.84 1 .85 1 2.19 0 .73-.41 1.29-.4.56-.97.89-.58.33-1.47.6-.89.27-1.57.39-.69.12-1.64.27-.95.15-1.32.22.03.71.09 1.25.06.53.24 1.16.19.62.49 1.02.31.4.84.67.54.27 1.27.27.88 0 2.15-.16t2.26-.33q.99-.17 1.04-.17Zm-8.28-5.22q3.32-.95 5.45-2-.17-.81-.47-1.18-.29-.36-.88-.36-1.49 0-2.69 1.02-1.21 1.03-1.41 2.52Zm23.15-4.23.26 1.1q-.65.05-2.02.26-1.37.21-2.05.25.12.86.14 2.25.03 1.39.07 2.41.03 1.01.21 2.02.19 1.02.76 1.55.58.54 1.55.54.73 0 1.83-.34l.69 1.32q-1.93.68-3.91.68-.73 0-1.27-.44t-.83-1.1q-.29-.66-.48-1.67-.18-1.01-.23-1.92-.05-.9-.05-2.07 0-.64.02-1.76.01-1.12.01-1.54-.25.03-1.15.04-.9.01-1.05.01-.17-1.64-.17-1.68.17.04.56.04.22 0 .71-.03.49-.04.73-.04.1 0 .26.01.16.02.21.02.09-2.69.22-4.37l1.09.26q.03.59.04 1.26.01.67.03 1.49.01.82.01 1.26.63.05 1.9.1 1.27.04 1.91.09Zm2.54-5.76 1.26.29q.08 1.01.11 3.2.04 2.2.09 3.03 1.32-1.39 3.17-1.39 1.66 0 2.87 1.17 1.21 1.17 1.21 3.13v8.03q-.32.14-.8.14-.54 0-.98-.09 0-.2.01-.6.01-.4.01-.6 0-.95-.07-3.28t-.07-3.9q-.37-2.24-2.27-2.24-.83 0-1.64.45-.8.45-1.17 1.06.07 1.54.1 4.64.02 3.1.07 4.47-.59.09-1 .09-.61 0-1.03-.14.05-1.2.05-3.79 0-1.14-.02-4.21-.03-3.06-.01-5.27.01-2.21.11-4.19Zm20.55 15.21.25 1.08q-1.08.39-3.19.86-2.11.48-3.14.48-1.05 0-1.83-.7-.78-.69-1.17-1.78-.39-1.09-.57-2.15-.19-1.06-.19-2.09 0-6.1 5.52-6.1 1.32 0 2.32.84 1 .85 1 2.19 0 .73-.4 1.29t-.98.89q-.57.33-1.46.6-.89.27-1.58.39-.68.12-1.63.27-.96.15-1.32.22.02.71.08 1.25.06.53.25 1.16.18.62.49 1.02.3.4.84.67t1.27.27q.88 0 2.15-.16t2.25-.33q.99-.17 1.04-.17Zm-8.27-5.22q3.32-.95 5.44-2-.17-.81-.46-1.18-.3-.36-.88-.36-1.49 0-2.7 1.02-1.21 1.03-1.4 2.52ZM181.45.46l-1.37.27-.29-19.28q.68-.35 1.85-.57-.02.57-.02 1.76 0 2.64.19 5.23 1.17-.66 2.49-.66 1.37 0 2.32.64.95.65 1.42 1.77.46 1.13.66 2.27.19 1.15.19 2.49 0 1.47-.45 2.82-.45 1.36-1.56 2.37-1.11 1.02-2.7 1.02-1.37 0-2.71-.86-.02.25-.02.73Zm.29-10.2-.07 7.86q.14.44.91.7.77.25 1.67.25.86 0 1.43-.33t.87-.95q.29-.62.4-1.31.11-.68.11-1.56 0-.9-.1-1.77-.09-.86-.39-1.9-.29-1.04-.95-1.67-.66-.64-1.64-.64-.7 0-1.33.35-.62.36-.91.97Zm18.97 7.37.24 1.08q-1.07.39-3.18.86-2.12.48-3.14.48-1.05 0-1.83-.7-.78-.69-1.17-1.78-.39-1.09-.58-2.15-.18-1.06-.18-2.09 0-6.1 5.52-6.1 1.32 0 2.32.84 1 .85 1 2.19 0 .73-.41 1.29-.4.56-.97.89-.58.33-1.47.6-.89.27-1.57.39-.69.12-1.64.27-.95.15-1.32.22.03.71.09 1.25.06.53.24 1.16.19.62.49 1.02.31.4.84.67.54.27 1.27.27.88 0 2.15-.16t2.26-.33q.99-.17 1.04-.17Zm-8.28-5.22q3.32-.95 5.45-2-.17-.81-.47-1.18-.29-.36-.88-.36-1.49 0-2.69 1.02-1.21 1.03-1.41 2.52Zm17.02-4.18-.25.98q-2.36-.98-3.68-.98-1.17 0-1.65.36-.48.35-.48 1.5 0 .93.67 1.54.68.61 1.63.96.95.35 1.91.76.97.4 1.64 1.18.67.78.67 1.93 0 1.56-1.15 2.73-1.14 1.18-2.97 1.2-1.35 0-2.52-.56t-1.85-1.42l.7-.73q.3.12.87.39.57.27.82.36.24.08.72.18.47.1 1.01.1 1.15 0 1.88-.52.73-.51.73-1.44 0-.61-.34-1.03-.34-.43-.9-.7-.56-.27-1.23-.51-.68-.25-1.35-.55-.67-.31-1.23-.73-.56-.43-.9-1.16-.34-.74-.34-1.74 0-1.46.79-2.45.79-.99 2.23-.99.56 0 1.27.17t1.13.32q.41.14 1.23.47.82.33.94.38Zm8.62-.05.26 1.1q-.65.05-2.02.26-1.37.21-2.05.25.12.86.14 2.25.03 1.39.07 2.41.03 1.01.22 2.02.18 1.02.75 1.55.58.54 1.55.54.73 0 1.83-.34l.69 1.32q-1.93.68-3.91.68-.73 0-1.27-.44t-.83-1.1q-.29-.66-.48-1.67-.18-1.01-.23-1.92-.05-.9-.05-2.07 0-.64.02-1.76.01-1.12.01-1.54-.25.03-1.15.04-.9.01-1.05.01-.17-1.64-.17-1.68.17.04.56.04.22 0 .71-.03.49-.04.73-.04.1 0 .26.01.16.02.21.02.09-2.69.22-4.37l1.09.26q.03.59.04 1.26.01.67.03 1.49.01.82.01 1.26.63.05 1.9.1 1.27.04 1.91.09Z" transform="translate(159.245 330.055)"/><path xmlns="http://www.w3.org/2000/svg" id="SvgjsPath29845940" fill="#f7f9fa" d="M32.31-33.15c0-1.74-.61-3.19-1.73-4.31-.96-.96-2.3-1.24-3.64-1.24h-2.41c-.23 0-.34.06-.45.12v.16c-.06.06-.06.12-.06.12 0 .16-.11.22-.28.28l-.16-.12-.06-.05c0 .11-.06.11-.06.22l-.33.67h.61c1.74 0 3.48-.05 5.16-.22l-.06.5c-2.18.12-4.09.17-5.88.17l-6.72 15.96-4.03-14v-.05c-.28-.79-.62-1.4-1.07-1.91-1.4 0-2.68-.05-3.86-.17l-.22-.11c-.12 0-.28.06-.4.06h-.22c-.11.05-.17.05-.22.11-.9.11-1.57.11-1.85.06-.45-.06-1.29-.17-2.8-.06l.11-.78c.22.33.34.44.34.5.05 0 .05 0 .11-.06 0-.05.05-.11.17-.16.11-.06.33 0 .61.16.45-.44.95-.33 1.46-.22.33.06.61.11.78.11.23 0 .45-.11.67-.39 1.12.17 1.8.28 2.02.28.56.17 1.01.22 1.46.22.44 0 .89 0 1.34-.05-.95-.84-2.13-1.23-3.58-1.18h-.28l.16.17c-.05 0-.11 0-.16-.06-.06-.05-.06-.11-.06-.11l-4.42.17c-.73.06-1.07.39-1.12 1.12L.9-31.47c.11.28.05.56 0 .89L.34-19.32l-.9 18.14C-.56-.5-.06 0 .62 0l7.89-.17H5.88c.11-.28.45-.39.62-.39.05 0 .16.06.33.11.17.06.28.06.34.06h1.51c.17 0 .34 0 .45.05.28-.22.5-.56.5-.95l.17-5.77h-.11v-.28c.05 0 .05-.05.11-.05l.17-5.6.22.78 2.13 6.5c.67 2.35 2.8 3.13 4.76 2.07 1.29-.62 2.18-2.3 2.8-3.53 0-.05 0 0 2.97-6.16l-.73 11.99c-.06.56.5 1.17 1.12 1.17l8.12.17c.62 0 1.12-.5 1.12-1.12ZM8.62-38.19c.06 0 .12 0 .23-.11.11 0 .22.05.22.16 0 .06-.05.12-.11.23h-.34s-.05-.06-.05-.17c0-.06.05-.11.05-.11Zm18.37 0h.06Zm.17.22c.06-.05 0-.11-.06-.22.12.05.23.05.4.11.39.17 1.12.34 1.12.34Zm-1.85.39-.56.17s-.05 0-.05-.05c-.06 0-.12-.06-.17-.12.11-.28.67-.44.78-.22Zm-17.92-.33h.06c0 .05 0 .05-.06 0ZM1.4-35.84l.17-.11.11.11Zm-.06.9.23-.34v.34Zm10.7 4.2c0 .05 0 .16-.06.28h-.44c.11-.17.22-.28.28-.34.05-.06.16-.11.22-.22Zm-1.51.5h.39v.11h-.39Zm17.25.56h-.23c-.11-.11-.17-.22-.17-.34h.4c0 .12.05.12.16.17Zm-1.63.11.39.11v.34c-.22.11-.39.17-.56.17-.11 0-.22-.06-.28-.11.28-.06.45-.23.45-.51Zm-15.01 1.68c-.05 0-.11 0-.22-.05l.06-.06v-.06c.05 0 .05 0 .05-.05.06 0 .11.05.39.22Zm16.47.84c-.17.06-.28.06-.34-.05.06 0 .11 0 .17-.12l.11-.11c.23.06.34.17.34.28ZM1.68-20.89l-.17-.33.17.16Zm24.25.62.17-.11c.16 0 .28.05.28.22h-.17c-.11.06-.17.06-.17.06v-.06Zm-9.35.56c.11.11.11.17.11.17l.05.05c.06 0 .06.06.06.06l-.11.17h-.45c0-.12 0-.12-.06-.17-.05-.06-.05-.17-.05-.28Zm8.28 1.51h-.05c-.06 0-.11 0-.11.06l-.06-.06c-.06 0-.06-.06-.06-.11 0-.11.12-.23.28-.28Zm-9.63.06.56.05c0 .17-.05.28-.17.28l-.11-.05-.05-.17Zm-13.55.78h-.17v-.67h.17Zm18.03.22c-.17 0-.33 0-.39-.05 0-.06-.06-.17-.11-.17.17-.22.33-.34.5-.34.28 0 .45.12.45.28 0 .06 0 .12-.06.12 0 0-.05 0-.05.05v.06c-.11 0-.23.05-.34.05Zm-2.74.62c-.06 0-.23-.06-.45-.17l-.17-.11c.11-.06.23-.06.23-.06l.67-.16c.11.16.17.33.05.44h-.11c-.05.06-.11.06-.22.06Zm-15.29.06h-.17v-.51h.17Zm14.28.61h.28v.23h-.28Zm4.42.28h-.5v-.17h.5Zm-19.09.11c.11-.05.17-.11.17-.16v.44-.05c-.28-.06-.34-.17-.17-.23Zm.17.34.05 1.79c-.28-.17-.33-.45-.28-.78.06-.11.06-.23.06-.45 0-.11-.06-.22-.11-.34.16-.05.28-.16.28-.22Zm14.84 1.23-.17-.33c.22 0 .45 0 .56-.12.05.06.11.06.11.12l.17.16-.28.12h-.17Zm2.35.23-.28.16c-.17 0-.34-.16-.34-.33 0-.06.11-.17.28-.28h.34l.05.05h.06c.06.06.11.12.11.17 0 .11-.05.17-.22.23Zm-1.01 1.28h-.22l-.17-.16c-.17.11.33-.28.5-.28.17 0 .39.16.56.44-.39 0-.61.06-.67 0Zm2.07.12h-.11v.16c.06 0 .06.06.06.12-.06.11-.06.16-.06.28-.06.11-.11.16-.28.16-.22 0-.34-.05-.39-.16-.06-.06-.06-.17-.06-.28 0-.23.28-.62.62-.84.22.16.33.28.33.39 0 .05-.05.11-.11.17ZM1.51-1.34l-.56.72C.9-.78.9-1.06.84-1.34c0-.12-.06-.34-.06-.62 0-.28.06-.45.12-.62.11-.5.16-1 .16-1.45 0-.51-.05-.9-.11-1.29C.9-5.71.78-6.1.73-6.55.67-6.89.62-7.39.56-8.01L.45-10.3c0 .11.05.11.11.05.06-.05.17-.11.28-.22.17-.17.34-.45.34-.73v-1.57l.5.11-.34 3.76-.16 3.36ZM17.08-11.7c-.06.05-.11.05-.22.05l-.06-.05v-.23c.06 0 .39.11.39.23Zm-.84.84v-.06c0-.06 0-.06.11-.06.06 0-.05.12-.11.12Zm10.19 2.52c-.05.05-.11.11-.17.11-.16 0-.22-.06-.28-.11-.05-.06-.11-.06-.11-.12.06-.16.17-.28.34-.28.11 0 .17.06.22.12 0 0 .06 0 .17.11Zm3.19 1.06c.12-.11.23-.17.28-.17.06 0 .12.06.12.17ZM16.86-6.27l-.17.11a.45.45 0 0 1-.28-.11c-.11-.06-.23-.11-.28-.17-.23-.06-.39-.17-.62-.28 0-.06.17-.22.28-.22.11 0 .17.05.28.11.17.11.39.22.79.22Zm1.23.28c-.06-.06-.34-.17-.45-.28 0-.11.06-.23.17-.28.05.05.17.11.22.22l.17.23Zm-9.47-.06c0-.17.23-.22.4-.22.28 0 .28.11.28.22 0 .17-.06.28-.23.28-.33 0-.45-.11-.45-.28Zm-1.84.56c0 .06-.06.11-.17.17-.17 0-.23-.06-.23-.17v-.11c.06 0 .06-.06.06-.06h.28l.06.06Zm9.91.9-.17-.06c0-.11.06-.17.17-.17Zm0 .78-.11-.05v-.23h.11ZM5.77-3.7c-.06 0-.06 0-.06.06-.17 0-.39-.06-.56-.22.06-.06.39-.17.45-.17.11 0 .17.11.17.22ZM9.3-1.9c.05 0 .11 0 .16.05v.06h-.11c-.28 0-.39-.06-.33-.17.05-.11 0-.22-.17-.39v-.11c0-.06.11-.12.28-.12 0 0 .05 0 .17.06 0 0 .11.06.16.06-.05.05-.16.16-.28.22v.22Zm53.53-35.51c-.22-.33-.56-.56-.89-.56l-6.5-.73c-.56-.05-.95.17-1.18.73l-4.76 11.2.23.06-.23.05-1.17 2.8-5.49-14.28c-.28-.67-.73-.95-1.46-.67l-5.99 2.13c-.5.17-.89.78-.67 1.4.73 2.3 1.68 4.59 2.46 6.83 1.52 4.54 3.81 10.75 6.44 17.92l-.89 9.3C42.67-.56 43.18 0 43.9 0l7.4-.17c.72 0 1.12-.39 1.12-1.12l.33-10.36L62.89-36.4c.11-.34.11-.67-.06-1.01Zm-.78 2.24c-.11 0-.23.06-.34.06-.11 0-.28-.06-.56-.17-.5-.22-.84-.34-1.01-.39l-1-.34-.45-.17h-.67c-.51 0-.79-.11-.9-.16-.62-.28-.34-.17-1.06-.34-.28-.06-.4-.17-.4-.39 0-.11.23-.34.4-.34.5 0 .89.06 1.12.11.56.23.72.34 1.12.56.05.12.22.12.39.12.22 0 .5-.06.78-.23.11.06.23.11.34.11l.22.17c.23.06.39.17.62.28h1.17c.12 0 .12.06.12.06 0 .05.05.11.11.11Zm-23.97-.89-.56.16c-.06-.16-.11-.28-.22-.39.11-.11.44-.33.67-.33.11 0 .22.05.56.33 0 .11-.17.17-.45.23Zm-1.68-.12c-.06-.05-.06-.05-.06-.11 0-.05.06-.11.17-.17 0 .12 0 .17.11.17Zm2.86 0c-.12 0-.23 0-.34-.05 0-.06.11-.17.28-.23.06 0 .11.06.17.06l.17.11c-.12.06-.23.11-.28.11Zm14.16 8.8c-.11.05-.22.05-.28.05-.16 0-.28 0-.33-.11v-.22h.17c.05-.06.22-.06.5-.06l.17.17c-.06 0-.11.05-.23.17Zm-4.92 3.64v-.12l.44.06v.17c-.22.05-.33.11-.44 0-.06-.06-.06-.11-.06-.11Zm-.34.84c0-.06.11-.06.22-.06.06 0 .12 0 .23.06.05 0 .11.05.22.05-.11.11-.28.23-.45.23h-.67c.28-.17.45-.23.45-.28Zm.34 1.17h-.12c0-.05-.05-.05-.11-.05.06 0 .11-.06.23-.06.05-.06.11-.11.16-.11.12-.11.23-.17.28-.17.17 0 .23.06.23.11 0 .06.11.17.22.23-.11 0-.11 0-.11.05h-.22c-.06 0-.12-.05-.23-.11-.11.06-.22.11-.33.11Zm.95 1.01c-.06.11-.17.17-.28.22-.11-.05-.23-.11-.23-.28 0-.11.06-.16.12-.22l.56.06Zm-2.97.56-.17-.11h-.11s.06-.06.11-.06c.06-.05.17-.05.23-.05Zm7.06.5v.28h-.17c-.06 0-.17.06-.17.06-.11-.34-.06-.34-.22-.5.11-.12.22-.17.28-.17h.11c0 .05.05.05.05.05h.12c0 .12.05.17 0 .28Zm-6.16.4c-.17 0-.23-.12-.23-.23 0-.05 0-.22.28-.22 0 0 .17 0 .51.05v-.05h.33v.11h-.33v-.06c-.06.06-.17.06-.28.17-.12.11-.17.17-.28.23Zm.67.33c-.11 0-.28-.05-.34-.05-.11.05.34-.4.56-.4.06 0 .11.06.17.06.06.06.11.06.17.06-.06.22-.23.33-.56.33Zm-.67.39-.12-.05.06-.06.11.06Zm5.65 1.52c.06 0 .17 0 .28.05v.06s0 .05.06.05c-.11.06-.23.12-.34.12h-.22c-.06-.12-.11-.23-.23-.28-.05-.06-.11-.12-.11-.23 0 0 .06-.11.06-.28 0 0 .05-.11.11-.33 0-.06 0-.06.06-.06 0 0 .05-.06.05-.11.06 0 .06 0 .11-.06-.05-.17-.11-.28-.11-.33.11 0 .23-.06.28 0h.28v.16c-.05.06-.05.12-.05.23 0 .05.05.11.11.17 0 .05.05.16.11.22-.06.06-.11.06-.22.11-.17.06-.34.17-.4.28 0 .06 0 .11-.11.17.06.06.17.11.28.06Zm-.95.44-.34-.05.34-.06ZM51.8-5.6v1.79h-.06v.11c0 .12 0 .17-.05.17-.06.06-.06.17-.06.17h-.22c-.11 0-.23-.06-.39-.17v-.22c-.06 0-.12 0-.23-.06-.05 0-.05-.05 0-.11.06-.06.06-.11.06-.11v-.45c.05-.22 0-.34-.06-.5-.05 0-.05-.06-.05-.06-.06-.06-.06-.11-.06-.17 0-.05 0-.11.06-.17.11 0 .11-.05.11-.11 0-.28 0-.84.05-1.68.06-.61.06-1.23 0-1.73 0-.06-.05-.12-.05-.17-.11-.11-.11-.11-.11-.23l.05-.05c.06-.06.06-.11.11-.11 0-.23 0-.45-.05-.62v-3.47h.95c0 .11-.06.28-.06.45-.05.22-.05.39 0 .5 0 .17 0 .28.06.45.06.17.06.28 0 .45 0 .05-.06.05-.06.16-.05.06-.05.12-.05.12 0 .05 0 .11.05.22.06.17 0 .34-.05.45-.06 0-.06.11-.06.17 0 .05 0 .11.06.16 0 0 .05.06.05.12v1.56c.06.12.06.17.06.34 0 .34 0 .56-.06.84v1.4c.06 0 .12.06.12.11 0 .17 0 .34-.06.45Zm55.66-32.93c-.28-.22-.56-.33-.89-.33L84.95-37.8c-.67 0-1.01.39-1.06 1.01-.67 6.55-1.23 13.05-1.57 19.6-.34 5.32-.45 10.69-.56 16.01 0 .68.5 1.18 1.18 1.18l7.39-.17c.73-.05 1.06-.39 1.06-1.17v-10.7c1.91-.45 3.87-.9 5.77-1.18 2.07-.28 4.14-.5 6.22-.67.72-.05 1.06-.45 1.06-1.12v-6.38c0-.62-.5-1.12-1.18-1.12l-11.76.67.56-6.44 14.34-1.79c.62-.11.95-.45 1.01-1.07l.33-6.55c.06-.28-.05-.61-.28-.84Zm-16.52 1.46H91c.06 0 .11-.06.11-.06.06 0 .11.06.11.17 0 .11-.05.17-.11.28-.11-.11-.17-.17-.22-.17h-.06c-.05-.05-.11-.11-.22-.17.17 0 .28-.05.33-.05Zm.84.39h-.39v-.45l.51.11c0 .17-.06.28-.12.34Zm-5.09.39c-.06.06-.11.11-.11.17 0-.06-.06-.11-.12-.17-.05-.11-.11-.17-.11-.22 0-.06 0-.11.06-.23.05 0 .05-.05.11-.05 0-.06.06-.06.06-.11 0 .11.05.16.16.16l-.16.12c0 .11.05.16.22.16 0 .06 0 .12-.11.17Zm.84-.39.28.06-.06.11-.22-.11Zm2.74.39h.34v.11h-.34Zm9.41 1.07h-.22v-.23h.22ZM87.19-33.1h.11v.17h-.11Zm1.74 1.12c.11 0 .22 0 .28.06 0 .22-.11.28-.39.28l-.23-.34Zm-1.91 1.46.17.06-.11.11-.11-.06Zm-.11 2.02h.23v.11h-.23Zm1.79.67.12-.62c.33.28.44.45.44.62Zm1.24 3.97h.44v.06l.06.06v.16l-.5.12Zm-.9.45c-.11.06-.11.11-.22.17l-.12.11c-.22 0-.33-.05-.44-.17v-.22l.11-.11.78.05c-.11.12-.11.17-.11.17Zm-.9 2.86c-.28 0-.44 0-.56.05-.22 0-.44-.05-.5-.16l.5-.34.34.17.11-.39c.11.05.45.33.45.44h-.56c.11.06.17.17.22.23Zm12.6.56c.12-.06.17-.17.17-.34v3.14c.11.28.17.84.17.84l-.06.45-.11.72v-.56c0-.16-.05-.28-.17-.39ZM87.25-17.3h-.17v-.12h.17Zm3.53 1.62c-.12 0-.62 0-.73-.5.11 0 .22 0 .33-.06h.23c.22 0 .39 0 .56.22 0 .06.11.12.22.23-.33.11-.39.11-.61.11Zm10.19.9h-.11v-.34h.11ZM82.88-10.3c-.06.05-.11.11-.11.16 0-.05-.06-.11-.11-.16-.12-.12-.12-.17-.12-.23 0-.11.12-.28.23-.33 0 .05 0 .11.11.11l-.11.11c0 .11.05.17.22.22 0 .06-.05.12-.11.12Zm1.01-.23-.23-.05v-.12l.34.12Zm1.23 4.54c.11 0 .22.05.28.05 0 .23-.17.34-.45.34l-.17-.39Zm-1.9 1.62-.12-.05.12-.06h.11Zm.11 2.02h-.23v-.11h.23Zm1.57.56.11-.62c.28.23.45.39.45.62Zm56 .45-4.2-23.47c-.51-2.69-1.24-5.71-1.35-6.16-.33-1.23-.73-2.63-1.17-3.86-.84-1.91-2.13-3.7-4.32-3.87-1.17-.11-2.29-.11-3.24.06-1.29.17-2.52.45-3.76.67-.39.11-.67.34-.84.67-1.79 4.2-3.58 8.46-5.26 12.72-1.23 3.13-2.41 6.32-3.42 9.57-1.34 4.37-2.68 8.85-3.86 13.22-.11.78.34 1.45 1.06 1.45l8.29.17c.56 0 .95-.28 1.12-.84l1.23-5.15 8.46-1.68.56 6.83c.06.67.45 1.01 1.12 1.01h8.46c.72 0 1.23-.62 1.12-1.34Zm-17.76-35.28h.23v.33h-.23Zm6.84 1.34h.16v.45h-.16Zm-.45.9c0 .05.11.05.28.05 0 .23-.06.34-.11.45l-.17-.17Zm-6.05.33c-.17.28-.28.51-.28.67v-.72s.06.05.11.05Zm7.11.11c-.11.12-.17.17-.17.23h-.22c0-.11 0-.11-.06-.17v-.22l.62.05c-.06 0-.11.06-.17.11Zm-.56-.11.11.23v.11l-.11-.17Zm1.18.62c.17 0 .33-.06.5-.11l-.11.16c0 .17.11.23.28.34-.11.06-.17.11-.22.11h-.73l-.11-.11c.11-.28.22-.39.39-.39Zm-.17 1.51c.17 0 .34.06.5.17-.05.05-.05.05-.05.11s-.06.11-.11.17c-.12-.06-.17-.11-.28-.11-.12 0-.23-.06-.28-.12 0-.16.11-.22.22-.22Zm-4.54.34h.06l-.06.16-.11-.05Zm.79.44s.05-.05.22-.05c.06.05.11.17.11.33-.11 0-.16.06-.22 0h-.28l-.06-.28Zm4.7 1.01c.17 0 .28.11.28.28 0 .06-.11.17-.22.23h-.34c-.05-.06-.11-.12-.11-.17 0-.11.06-.17.11-.17.11-.06.23-.06.28-.17Zm-12.32 2.19c.06.28.06.61 0 .89-.11 0-.33-.5-.33-.61 0-.12.39-.4.33-.28Zm3.87.72c0-.05 0-.11.05-.11l.28.11c-.05.12-.11.12-.22.06-.11 0-.11.06-.11.06Zm-3.7.9v.67h-.22v-.61Zm6.44.28c.06.06.11.11.11.17 0 0 .06.05.06.11l-.17.45c-.45.22-.62.17-.78-.34.22-.33.5-.45.78-.39Zm6.33.06v.11h-.39v-.11Zm.22 1h-.33l-.06-.11s0-.05.06-.17c.22 0 .33.12.33.28Zm-8.73 8.96 2.74-9.01c.28 1.17.5 2.35.73 3.53.17.89.28 1.79.39 2.68l.34 2.69Zm1.73-8.62-.17.45-.11-.06.17-.45Zm5.15.22.12.12-.12.05-.16-.11Zm-7 4.09c-.33.79-.89 2.52-.89 2.41l-.23.62c-.22.22-.33.39-.33.5-.17.22-.34.56-.39.9-.06.28-.17.61-.34.95-.06.05-.17.11-.17.17-.11.05-.17.05-.28 0-.05 0-.11-.17-.11-.4.06-.22.17-.44.28-.67.17-.28.28-.5.34-.78 0-.23.05-.39.11-.51.11-.39.11-.56.5-1 .34-.4.39-.56.51-.9 0 0 .05-.28.22-.78.22-.73.45-1.35.39-1.24.06-.22.11-.33.17-.39.11-.05.17-.17.17-.22.05 0 .11-.17.22-.39.11-.28.17-.62.28-1.01.06 0 .17-.11.28-.23.11-.11.17-.16.28-.22l.28.11c-.33.67-.5 1.01-.56 1.18 0 .11-.05.28-.11.45-.06.16-.34.61-.62.78Zm7.4-1.85v-.22l.39.06c-.06 0-.06.05-.06.05v.11Zm1.12.4v-.12l.33.12v.11Zm-2.36.28h.28c0 .11-.22.16-.28 0Zm3.2 1.73c0 .17-.06.23-.28.23Zm-4.2.17s.11.06.22.06c.06.05.11.11.11.16h-.33Zm2.35.78h-.06v.17h-.5c-.17-.17-.11-.28.05-.39h-.33c0-.17.05-.28.17-.34.39.06.61.23.67.56Zm1.45-.44c0-.06.06-.12.12-.12h.11s.05.12.11.12c0 .11-.17.11-.34.11Zm-.78 0c.22 0 .34 0 .34.05l-.12.17c-.11 0-.11-.06-.16-.11-.06-.06-.06-.06-.06-.11Zm.78.44h.45c.17 0 .34.12.45.23-.34.17-.62.22-.9.05Zm-1.51.96c0-.17.11-.28.28-.34.06 0 .11 0 .17.06.06 0 .11.05.17.05v.28h-.34c-.05-.05-.17-.05-.28-.05Zm-1.79-.06h-.45v-.11h.45Zm4.48.11c-.17.11-.28.23-.34.34-.05.11-.22.17-.44.22.22.23.39.34.56.34.16 0 .28.11.39.28-.11 0-.17.05-.23.05h-.78c-.34-.56-.5-.78-.5-.95 0-.17-.06-.05.61-.5h.56c.06 0 .11.05.17.22Zm-13.44.34c0 .11-.06.28-.17.45-.11-.06-.17-.17-.17-.34 0-.11.06-.34.12-.5h.22Zm10.92.11h-.11c-.06.06-.06.06-.11.06v.05l-.28-.22v-.23h.39l.05.12c0 .05.06.11.06.22Zm.62.06c.05 0 .11.05.16.05 0 0-.05.34-.22.56l-.11-.67h.11c0 .06.06.06.06.06Zm-1.35.28h.84c0 .11-.22.28-.39.28s-.34-.06-.39-.06c-.11 0-.23 0-.34.06l-.17-.28c.12 0 .28-.06.45 0Zm-.5.84-.11-.06.05-.17h.11Zm.73.56c-.06 0-.06.05-.06.11l-.39-.11c.05-.06.05-.06.05-.12l.12-.11c.16 0 .28.06.33.06 0 .11 0 .11-.05.17Zm-.9 0 .11-.12c.06.06 0 .12-.11.12Zm3.08.61c-.06 0-.28-.11-.34-.11 0-.06 0-.06.06-.06.11 0 .17-.05.17-.05.11.11.17.17.17.22Zm-1.01.79v-.34c-.11-.28-.22-.45-.39-.5-.06 0-.17-.06-.17-.12.28-.05.56.06.9.28 0 .12.05.23.11.34 0 .17.06.28.11.34Zm-2.24-.34h-.17v-.22h.17Zm4.76.34.34.05v.06h-.34Zm-3.47.11v.28h-.22v-.28Zm-1.62.39h.16v.11h-.16Zm-1.68.39h-.28v-.11h.28Zm1.17.79-.11-.12h-.22c.16-.11.28-.16.39-.16 0 .11 0 .22-.06.28Zm1.85.11.34-.34c0 .06.05.11.16.11.12.12.17.17.17.23 0 .11-.17.28-.39.45-.17 0-.45-.12-.56-.17.17-.11.22-.23.28-.28Zm1.46 1.45v.12h-.28v-.12Zm-.68.12v.44c-.22-.11-.33-.22-.33-.44Zm2.3.22c.17 0 .22-.06.28-.22 0 .28 0 .44.06.5l.22.17c.06 0 .11 0 .17.11-.23.06-.34.11-.34.06-.05.05-.17.05-.33.05-.34 0-.51-.39-.51-.5Zm-12.38.5h-.61v-.28h.61Zm-1.79 1.12c-.05.06-.11.06-.17.06-.44 0-.72-.39-.72-.56 0-.11.11-.45.56-.45.11 0 .56.23.67.28 0 .11.05.23.11.34 0 0 0 .11.11.33Zm10.08-.72h-.17v-.23h.17Zm5.94-.17h.22v.11h-.22Zm-5.49.17h.78v.16h-.56c0-.05-.05-.11-.22-.16Zm-2.86.22-.05-.11.17-.06.05.11Zm9.47 7.5c-.17 0-.56-.44-.56-.61v-.11c.05-.06.05-.12.05-.17a.764.764 0 0 1-.39-.45c0-.22-.05-.39-.05-.5-.06-.06-.12-.06-.17-.17-.06 0-.11-.06-.11-.11-.12-.06-.12-.12-.17-.17l-.17-.17h.06v-.06h.05v-.78h-.33c-.12.06-.17.06-.28.06-.28 0-.51 0-.68-.06.62-.28-.39-.62-.61-.73v-.5c0-.06.05-.17.11-.23.06-.05.06-.11.06-.16 0-.06 0-.06.05-.06.06 0 .11-.06.11-.11.06-.11-.16-.23-.33-.17.05-.06.05-.17.11-.39 0-.17.17-.28.5-.28.12 0 .23 0 .4-.11 0 0 0-.06-.12-.12-.05-.05-.11-.11-.22-.16-.11-.17-.11-.28 0-.4-.22-.16-.34-.22-.22-.16-.06-.06-.12-.12-.12-.17 0-.34.73-.62 1.07-.62.05 0 .67.17.84.28v.45l-.23-.17c-.33 0-.5.06-.5.28v.56l.17.11c.11-.05.22-.16.39-.28l.39-.33c.23.39.23.67.11.73-.11 0-.16.11-.16.22s.05.22.16.39c.28.45.28.84.12 1.18-.06.17.11.33.44.5-.22.17-.28.28-.28.39 0 .06.06.12.12.28.11.17.16.23.22.28.11.56.17 1.01.22 1.35.06.33.12.78.23 1.34-.11.11-.17.11-.28.11Zm-21.11-6.72-.17-.11v-.11c.22.06.28.11.17.22Zm2.4.9c0 .06 0 .06-.05.06-.06 0-.11 0-.11-.06 0-.11.05-.22.11-.28.11.11.17.17.05.28Zm14.9.56c-.06.11-.11.11-.11.17-.06-.06-.11-.06-.17-.17-.06 0-.06-.11-.06-.17h.4c0 .06 0 .17-.06.17Zm-16.63.06c0-.06.05-.06.05-.06.06 0 .06 0 .12-.06.22 0 .33.06.33.17v.28l-.11.06-.39-.17Zm14.39.16h-.39v-.22h.39Zm.67.23c.23.05.34.05.34.22h-.34Zm-14.89.89c-.06.06-.12.12-.17.12-.28 0-.51-.4-.51-.45.45 0 .73-.17.9-.51.06.06.11.12.22.17.06 0 .12.06.17.11v.23l-.39.11c-.11.11-.22.11-.22.22Zm14.33 0-.05-.39c.05.06.11.06.28.11l.33.17Zm-12.09 1.12c-.12-.05-.23-.05-.23-.05-.05-.06-.11-.06-.22-.17.05 0 .11 0 .22-.06h.11c0-.05.06-.05.12-.05l.11.11c0 .11 0 .17-.11.22Zm-2.69.34c-.17.06-.28.06-.34 0 0-.11.11-.22.28-.22.11 0 .34.22.39.22Zm1.01.22-.34-.22c0-.06.11-.11.34-.22.16.05.22.16.22.28-.06 0-.11.05-.22.16Zm14.5-.16c.11-.06.22-.12.28-.17.11.11.22.22.22.33h-.61Zm1.06 2.8c0 .05 0 .05-.05.11-.17-.11-.51-.51-.62-.73h.56c0 .17.06.34.17.56-.06 0-.06.06-.06.06Zm36.91-32.6c-1.74-2.96-4.59-4.48-7.9-4.81-.61-.06-1.23-.11-1.85-.11-3.8 0-7.22 1.23-9.85 4.2-3.92 4.25-7.17 10.19-7.17 18.87 0 7.84 3.47 14.05 8.79 15.51 1.35.39 2.63.56 3.87.56 3.58 0 6.77-1.46 9.68-4.37 1.8-1.73 3.25-4.25 4.43-6.44.11-.17.11-.33.11-.56 0-.22-.06-.5-.28-.73l-3.36-3.52c-.22-.23-.56-.34-.84-.34-.34 0-.73.17-.95.5-.79 1.35-1.51 2.52-2.24 3.59-.23.28-.45.61-.67.95-.28.34-.51.67-.79.9-1.23 1.23-2.57 1.79-3.92 1.62-2.8-.5-3.13-5.1-3.13-7.67 0-5.88 2.68-15.23 6.72-15.23.44 0 .78.22 1.06.67.11.28.17.56.17.95 0 .73-.17 1.57-.34 2.46-.28 1.12-.67 2.64-.84 3.2-.05.11-.05.28-.05.39 0 .61.44 1.12 1.12 1.12h7.78c.56 0 .95-.28 1.06-.84.4-1.4.73-3.03.73-4.48.17-2.41-.28-4.54-1.34-6.39Zm-7.39-4.2c.16.06.33.06.44.12.12 0 .28 0 .45.05l.23.17c-.12 0-.28 0-.51.06-.17.05-.28.11-.39.11-.11 0-.28-.11-.45-.23 0-.05.06-.16.23-.28Zm.44 1.35c-.05 0-.05 0-.05.05v.12l-.73-.34c.06-.11 0-.22-.17-.28.11-.11.28-.22.56-.28.06.06.11.11.11.17-.05.05-.05.11 0 .17.06 0 .12.05.28.05.06-.05.17-.05.28-.05.06 0 .17 0 .28-.12.06-.11.17-.16.34-.22.06-.06.06-.11 0-.22-.06-.06 0-.12.06-.17.05.05.11.05.28.05.16 0 .28.06.33.12-.11.11-.22.16-.33.22-.12.06-.28.11-.34.11-.11.17-.06.17-.22.28-.23 0-.4 0-.56.06-.17.05-.23.11-.12.28Zm-6.44-.45c0 .06-.05.06-.16.06-.12 0-.17-.06-.17-.06v-.06c0-.05-.06-.11-.11-.11-.06-.05-.23-.11-.4-.11h.84v.11c0 .11.06.11.06.11Zm1.07-.28h.5l-.22.22h-.28Zm7.67.45h-.28v-.11h.28Zm-7.17.33c-.11-.05-.22-.11-.22-.22 0-.06.05-.11.11-.11h.34c0 .11.05.22.22.28l-.22.17c-.06 0-.12-.06-.23-.12Zm3.64.17c.17-.17.28-.22.34-.22.05.05.05.17 0 .22 0 0-.06.06-.06.17 0-.06-.05-.11-.28-.17Zm-3.53.39c-.05 0-.16 0-.28-.05-.16 0-.22-.06-.28-.06.06 0 .12-.05.23-.17h.22c0 .06.06.12.11.17Zm-.56 1.35-.11-.06.06-.11.17.11Zm4.71 1.23v-.17c0-.05 0-.05.11-.05 0 .11-.06.16-.11.22Zm-.23 1.18-.44.05v-.73h.44Zm-3.13.44c0 .06-.11.17-.17.28h-.34c.06-.05.12-.16.17-.28 0-.05.06-.16.17-.33h.34Zm5.71 1.07c0 .05 0 .17-.11.28-.06.05-.11.17-.17.28l-.22-.17.05-.62c.34 0 .45.12.45.23Zm1.06.28h.62v.11c-.06 0-.06 0-.06.06l-.05.05v.11l-.62-.11Zm-.22 1.17c0-.05.28-.5.5-.5.12 0 .23.06.34.11.11.06.17.11.22.11 0 .06.06.06.17.17v.28l-.22.06c.05 0-.06.05-.28.11-.11.06-.23.11-.28.11-.39 0-.45-.22-.45-.45Zm-11.82-.22c0-.06.06-.11.12-.11.05.05.11.05.11.05l.05.06Zm11.2.62-.33.22-.39.11c-.06 0-.17 0-.28-.05-.06 0-.17 0-.34-.12v-.22c.11-.06.17-.06.22-.06.12 0 .17 0 .23-.05.22-.06.28 0 .45-.28l-.06-.06s.56.34.5.51Zm1.91.5s-.06 0-.11.11h-.17v.06c-.06 0-.06.05-.11.05.11.06.16.12.16.28l-.22.17c-.06-.05-.22-.11-.39-.17a.975.975 0 0 1-.34-.16c0-.17.06-.34.23-.56h.16l.06.05c.11.11.22.17.34.17.05 0 .16-.06.33-.11h.17Zm-14.79.34h-.16v-.17h.16Zm-1.34 1.4c-.11.05-.11.05-.11.16-.11-.11-.11-.16-.11-.11-.06-.05-.12-.05-.23-.05-.05 0-.11 0-.11.05h-.06c-.05 0-.11-.11-.11-.22 0-.06.06-.17.17-.34.11-.11.22-.22.28-.39-.11 0-.28 0-.39-.06-.17-.05-.28-.11-.28-.16 0-.12.11-.23.33-.4-.05.17.06.28.17.34.34.17.45.45.45.67 0 .11.06.23.11.34-.11.11-.11.17-.11.17Zm.34-1.07c.05 0 .11 0 .11-.11.05 0 .05-.06.11-.06l.17.12c.05.05.11.11.11.16Zm.78 0 .06.06s-.06 0-.06-.06Zm-3.25.67c.17 0 .34.12.45.23l-.11.17c-.11 0-.23-.06-.34-.17Zm-.33.79h-.28c-.06 0-.17 0-.28-.11Zm1.28-.11c0 .16-.05.28-.16.33-.12-.05-.45-.11-.73-.11v-.22Zm1.07.44h-.28v-.11h.28Zm4.7.23h-.11v-.17h.11Zm11.82.22-.06-.11h.06l.11.06Zm-18.76.28c.05 0 .05.06.05.17 0 .11-.05.17-.22.28-.28-.11-.39-.28-.34-.56h.4c0 .06 0 .06.11.11Zm1.51.84c-.06 0-.17 0-.17-.05-.11-.06-.17-.12-.22-.12-.11 0-.23.06-.39.17-.23.11-.4.11-.45.11 0 0-.06 0-.06-.11-.05 0-.11-.05-.11-.05s0-.06.11-.12c0 0 .06-.05.11-.05h.12l.05.05h.11c.06 0 .06-.05.06-.16 0-.12-.06-.23-.17-.28h.28c.17 0 .67.39.95.61Zm-2.13.17c-.05 0-.28-.17-.28-.28.23.11.28.17.28.28Zm-.78-.11h-.28v-.11h.28Zm3.47.84h-.17c-.05-.11-.11-.23-.11-.34 0-.11.11-.33.17-.45.17.34.17.62.11.79Zm-.39-.34-.45-.05v-.12l.45.06Zm-1.85.95c0-.05.06-.11.11-.22 0-.06.06-.17.11-.28 0 .06.06.11.23.11v.34h-.17c-.11.05-.22.05-.28.05Zm-1.57.17-.22-.11c0-.11.17-.22.39-.28l.06.06h.11c0 .11-.11.22-.34.33Zm2.24.23h-.28l.06-.23h.28Zm-1.4.22h.34c0 .06 0 .06.05.11 0 .06 0 .11-.05.11l-.06.06h-.28Zm.79 1.68c-.28-.11-.56-.17-.79-.17 0 0-.05-.05-.05-.17l-.06-.11h.34c.11 0 .22 0 .33.06.11.05.17.11.23.11Zm-.06.56c-.06-.11-.06-.11-.11-.11 0 0-.06-.06-.06-.11 0-.12.06-.23.17-.23Zm2.13 1.01c0-.06 0-.17-.06-.34-.11-.11-.11-.22-.11-.33 0-.17.06-.34.17-.45.05.11.05.22.05.39 0 .28 0 .5-.05.73Zm-6.33 2.35c0 .06-.11.17-.28.28l-.11-.17c-.06-.05-.06-.11-.06-.22 0 0 0-.06.06-.17v-.17h.39Zm21.5 2.3v-.12c0 .06 0 .06.06 0l.28.17c0 .06 0 .11-.06.17-.05.06-.11.11-.11.17-.17-.17-.22-.28-.17-.39Zm-20.49 4.64c-.11 0-.11 0-.17.06-.06-.06-.17-.06-.17-.06s-.05-.05-.11-.05v-.23l.28-.11h.39l.17.11c-.06.06-.28.17-.39.28Zm4.37.79h-.12v-.45h.12Zm11.53 6.83.17.11-.34.67-.16-.05Zm-6.21.95c0 .06.05.06.05.11.06.06.06.17.06.17h-.45c0-.05.22-.22.34-.28Zm30.96-7.89c3.53 0 4.32-2.08 4.71-4.37.05-.34.17-.73.17-1.23.05-.45.11-1.12.16-2.13.17-2.02.28-4.31.4-6.83v-.06l.67-13.33c.05-.73.39-1.06 1.12-1.06h6.89c.61 0 1.12.56 1.12 1.17l-.51 13.5v3.7c0 2.74-.22 5.6-.73 8.28-.56 2.69-1.62 5.32-3.41 7.4C193.09-.95 188.66.11 184.18 0c-2.52-.06-5.71-.45-7.61-2.24-1.91-1.74-2.69-4.37-2.97-6.89-.28-2.01-.22-4.2-.22-6.27.05-2.91.28-5.82.56-8.74l1.4-13.32c.05-.68.44-1.01 1.12-1.01h6.88c.62 0 1.18.61 1.12 1.23l-1.06 13.5-.5 7.39c-.34 3.58-.17 6.89 2.68 6.89Zm13.95-26.88v-.23c0-.17.11-.78-.39-.78-.4 0-.45.73-.45.84v.33c.05.12.05.28.05.62v.67c.06.34.06.56.06.67h.62c-.06 0-.06 0-.06-.05 0-.06-.06-.06-.06-.06 0-.33.06-.67.17-1.23.06-.45.06-.73.06-.78Zm-23.97 6.27-.06 2.01c0 .06 0 .06.06.12.06 0 .11.05.11.11.06 0 .17-.06.28-.23.11-.22.17-.44.17-.67-.11.11-.17.11-.22.11 0-.05-.06-.05-.12-.05v-.11c.12-.06.28-.23.4-.4l.33-7.11h-.28c-.11 0-.17.06-.22.11 0 .06-.11.06-.28.06.28.17.28.22.39.62v.39c0 .17-.11.28-.22.39 0 0 .05.22 0 .28 0 .06-.06.11-.12.17l-.05.73c-.06.05-.11.11-.11.16 0 .06.05.12.05.17.06.06.11.11.11.17-.05.28-.11.45-.16.62l-.12.39c0 .05.06.17.12.28.05.11.11.22.11.28 0 .17.05.28.05.39.06.22.06.34.06.34 0 .05-.06.16-.11.33-.11.11-.17.23-.17.34Zm.34 6.94v-.67c-.23.06-.34.06-.4.06-.11 0-.16.05-.22.05l-.06.23c.12.11.28.28.68.33Zm17.69-.28c-.11 0-.22-.05-.33-.05v.16c0 .06.05.12.11.12 0 0 .05 0 .05-.06.06 0 .06-.11.17-.17Zm-17.81 1.79c-.33.17-.61.34-.67.51.06.11.11.17.28.17.45 0 .39-.4.39-.68Zm19.21 3.7h-.39l-.11.22h.45c.11-.05.11-.11.05-.22Zm-1.06 1.68c-.06-.06-.11-.06-.23-.06h-.11c0 .06-.05.06-.11.06.11.06.17.11.17.17.05 0 .11 0 .17-.06Zm-1.01 4.31v-.11l-.17.11v.11Zm.73.79.05-.23h-.16l-.06.23Zm-3.7 1.56h-.39l-.11.23h.5c.06-.06.06-.11 0-.23Zm-3.41.73c-.06 0-.12-.05-.23-.05-.17 0-.45-.06-.95-.06-.11.11-.17.17-.17.22.17.45.45.34.73.34.34 0 .39 0 .62-.45Zm1.68 0-.17-.05-.06.16.11.06Zm-.06.95h-.17l-.05 1.01h.05Zm-3.92.79.62-.06c-.12-.28-.4-.39-.45-.45-.11.12-.23.17-.23.28.06.12.06.12.06.23Zm29.57-30.58-1.35 26.43 12.83-.16c.67 0 1.17.5 1.17 1.17l-.16 8.07c0 .72-.4 1.12-1.12 1.12L203.73 0c-.39 0-.62-.11-.84-.34-.23-.22-.34-.44-.34-.84l1.74-36.79c.05-.73.45-1.06 1.17-1.06l7.23.17c.61 0 1.12.56 1.12 1.17Zm-2.69 1.63.11.05.11-.22h-.11Zm2.07 9.96v-.22h-.11c0-.06-.06-.06-.11-.06-.17 0-.23.06-.23.23 0 .05 0 .05.06.05 0 .06.06.12.17.12.05-.06.11-.06.11-.06s.06-.06.11-.06Zm-1.73 2.02-.51-.06v.28h.34c.05 0 .11-.05.17-.11.05-.11.05-.11 0-.11Zm-2.13 2.91v-.22h-.17l-.22.11c.11.06.11.11.11.11 0 .06.11.11.22.06.06 0 .06-.06.06-.06Zm-1.63 7.84c0-.22-.61-.39-.67-.39-.11 0-.28.06-.45.22-.11.17-.16.28-.16.4 0 .05 0 .11.05.22.06.11.23.11.45.11.34 0 .78-.33.78-.56Zm-.33 5.32v-.28l-.45-.05v.28h.28c.06.05.06.05.17.05Zm3.69.23-.44-.06v.11l.44.11Zm5.32.05h-.39c-.11.11-.17.23-.17.23.06.11.17.16.45.16.17 0 .28-.16.28-.22Zm-2.63.79c-.11.05-.17.11-.22.22.05.06.11.06.17.06h.16v-.12c.06 0 .06 0 .12-.05v-.06c.05 0 .05-.05.11-.05Zm-.89.22c-.12-.06-.17-.11-.23-.11v.17c0 .05.06.11.11.16.17 0 .23-.16.12-.22Zm2.07-.11-.06.17.34.11.11-.17Zm-6.33.56v-.23c-.06 0-.11 0-.11-.05-.06 0-.11-.06-.11-.06-.17 0-.23.11-.23.23 0 .11 0 .11.06.11l.17.11c0-.06.11-.11.22-.11Zm1.23.67v-.39h-.11c-.06-.06-.11-.06-.17-.06-.05.17-.05.34 0 .56.17-.11.23-.11.28-.11Zm5.38-.39-.34.11c-.22.06-.28.11-.28.22 0 .12.06.4.45.4.11 0 .67-.12.67-.4 0 0-.22-.33-.5-.33Zm-5.66 1.01.23-.17c-.06 0-.12 0-.12-.11 0-.12-.11-.17-.22-.12-.06.06-.11.06-.17.06 0 .06.11.06.17.17.06 0 .06.05.06.11 0 0 .05 0 .05.06Zm5.71.72.12-.11c-.06-.05-.06-.05-.12-.05v-.06h-.22c-.11.06-.17.11-.17.17Zm-9.24.12.68.11.22-.23-.11-.05c-.06 0-.11-.06-.23-.06-.22 0-.5.17-.56.23Zm-.39 0 .06.11.11-.06-.06-.05Zm18.71.39c.16-.06.05-.23 0-.23-.06 0-.12.06-.12.17 0 .11.06.11.12.06Zm-13.78.17v-.23c-.06 0-.06 0-.11-.05h-.28s0 .05-.06.05c-.05 0-.05.06-.05.11 0 .12 0 .17.05.17.06 0 .11.06.17.11 0-.05.06-.11.11-.11.06 0 .11 0 .17-.05Zm5.94.39v-.17s-.06-.06-.23-.11c-.05-.06-.11-.11-.17-.11-.22 0-.44.16-.5.28v.16h.22c.12 0 .23-.05.28 0 .12 0 .23 0 .4-.05Zm-10.48-.23v.12l.28-.12-.05-.05Zm5.94.12h-.22s-.12-.06-.23-.06c0 .11-.05.11 0 .11v.11c.11-.05.23-.05.28-.05.11 0 .17-.06.17-.11Zm-1.46.28.06-.06s-.11-.06-.22-.06v.17c.05 0 .11 0 .16-.05Zm43.91-27.22-7.62.28-.45 16.46c-.16 0-.33.12-.44.28.22.12.22.17.39.17h.05l-.05 1.35h-.17c-.06.05-.11.11-.22.11-.12.05-.23.11-.28.11.11.17.16.34.16.45v.17l-.11.11h-.05c0 .05-.06.11-.06.17l.17.56.11.5c0 .06-.06.17-.17.28-.11.11-.17.17-.17.22 0 .06.06.12.06.23l.11.17c.06.11.06.22 0 .33-.05.28 0 .45.17.45h.34l-.06.34s-.06-.12-.17-.23c-.05.17-.17.23-.28.23-.11 0-.22 0-.33.05 0 0-.06 0-.06.06h-.06v.11c0 .11.06.11.12.11.05 0 .11-.05.28-.05.05 0 .11.05.16.05v.11c0 .06-.05.17-.11.23-.05.11-.11.22-.11.33.11.06.22.06.28.06l.17.11c.11.11 0 .23-.17.28-.22.06-.34.11-.34.17.23.17.28.28.28.34 0 .11-.11.22-.33.28 0 .11.05.22.11.28 0 .11.11.16.22.22-.11.06-.11.11-.16.11-.06.06-.12.06-.12.11 0 .17 0 .28.06.4.06.16.06.33.06.44 0 0-.17.23-.17.34 0 .06.05.17.17.28.11.11.16.17.16.22 0 .12-.05.23-.16.34-.12.17-.17.28-.17.34 0 .11.22.5.5.5h.06l-.06.39c0 .73-.39 1.07-1.06 1.12l-7.62.17c-.61 0-1.23-.56-1.12-1.18l.23-8.96c0-.05.05-.05.05-.05h-.05l.22-6.89.22.11c.06 0 .12 0 .12-.05v-.12a.404.404 0 0 0-.34 0l.34-11.98-7.73 1.46c-.73.16-1.35-.34-1.35-1.12l.34-8.46c.06-.73.39-1.06 1.12-1.12l25.14-.5c.68 0 1.18.5 1.18 1.17l-.17 6.33c-.05.73-.39 1.06-1.06 1.12Zm-21.62-2.18h-.33v.16h.33Zm4.87.16h-.28v.23h.28Zm-6.32.34-.34-.22h-.34c-.16.22-.22.39-.11.56.11 0 .34 0 .56.11l.23-.23Zm4.48-.22v.33c.11.06.16.06.22.06l.06-.06h.11c.05 0 .05-.11.05-.17v-.16Zm-7.17.22h-.51v.17h.51Zm3.69 0c-.22 0-.33.06-.44.17-.12.11-.23.22-.34.28.06.11.22.11.34.17.05.05.16.05.33-.06-.11-.11-.05-.22.11-.28 0-.06.06-.06.12-.11.11 0 .11-.06.22-.06-.11-.05-.17-.05-.22-.11Zm-1.62.45v.22l.73-.11Zm2.3.5h-.23l-.11-.05h-.11c-.23.28-.34.5.22.56l.23-.12Zm3.92.17h-.17c0 .11.05.22.22.34.11-.12.17-.23.17-.4-.11 0-.17.06-.22.06Zm-5.66.28h-.34v.22h.34Zm3.53.28v-.17c-.34-.05-.56-.11-.79-.11-.22 0-.33.11-.44.34.11 0 .22 0 .33.05h.17c.06.06.11.06.17.06.33.05.5 0 .56-.17Zm3.36 16.13-.11-.23-.12.12-.16.11.11.05v.06Zm6.05.45h-.34v.11c.06 0 .11.05.11.05s0-.05.06-.05c.05 0 .05 0 .17-.11Zm-5.94 1.17c0-.11-.06-.17-.22-.22-.12.05-.17-.06-.17-.28-.28.45-.56.89-.39 1.4l-.06.17c-.06 0-.06.05-.06.11 0 .11.06.17.12.22l-.17.17c-.06.06-.11.06-.11.17 0 0 .05.11.16.17.12.11.17.16.17.22 0 .11-.05.28-.22.5v.4c.05.05.05.22 0 .5l-.11 1.23c0 .17-.06.39-.06.62.06.05.11.05.17.05.05.06.17.06.22.12.23.05.34.05.39.05.06 0 .12 0 .17-.05l.06-.06c0-.06-.06-.11-.11-.11-.12-.06-.12-.11-.17-.17.17 0 .22-.06.33-.22-.22-.12-.22-.28-.16-.45.05-.23 0-.56 0-1.01-.06 0-.12-.06-.12-.06.23-.11.28-.22.28-.39l-.16-.33c-.06-.23-.12-.4-.12-.56 0-.12-.05-.28 0-.4 0-.16-.05-.22-.11-.28.17-.05.34-.61.34-.78l.05-.5Zm7.95 1.79v.17h-.05c-.06-.05 0-.11 0-.11.05 0 .05 0 .05-.06Zm-1.12 2.19h-.17c-.05 0-.11 0-.16-.06v.17l.22.06c.11-.06.11-.06.11-.17ZM238-4.37l-.11-2.29c-.06 0-.11-.06-.17-.06-.11-.06-.11-.11-.17-.11-.17.11-.5.56-.45.67 0 .06 0 .17.06.28.06.06.06.11.06.22-.06.34-.06.56-.06.68 0 .05-.06.11-.06.11 0 .05 0 .11-.05.17.11.16.11.28.05.28-.05 0-.11 0-.11.05 0 .17 0 .28.11.34 0 .05.12.28.28.5.06 0 .17-.05.28-.05.12-.17.17-.34.17-.51-.11-.17 0-.22.17-.28Zm47.6-33.04c-.22-.33-.56-.56-.9-.56l-6.49-.73c-.56-.05-.95.17-1.18.73l-4.76 11.2.23.06-.23.05-1.17 2.8-5.49-14.28c-.28-.67-.73-.95-1.46-.67l-5.99 2.13c-.5.17-.9.78-.67 1.4.73 2.3 1.68 4.59 2.46 6.83 1.51 4.54 3.81 10.75 6.44 17.92l-.89 9.3c-.06.67.44 1.23 1.17 1.23l7.39-.17c.73 0 1.12-.39 1.12-1.12l.34-10.36 10.14-24.75c.11-.34.11-.67-.06-1.01Zm-.78 2.24c-.12 0-.23.06-.34.06-.11 0-.28-.06-.56-.17-.5-.22-.84-.34-1.01-.39l-1.01-.34-.44-.17h-.68c-.5 0-.78-.11-.89-.16-.62-.28-.34-.17-1.07-.34-.28-.06-.39-.17-.39-.39 0-.11.23-.34.39-.34.51 0 .9.06 1.12.11.56.23.73.34 1.12.56.06.12.23.12.4.12.22 0 .5-.06.78-.23.11.06.22.11.34.11l.22.17c.22.06.39.17.62.28h1.17c.11 0 .11.06.11.06 0 .05.06.11.12.11Zm-23.97-.89-.56.16c-.06-.16-.11-.28-.23-.39.12-.11.45-.33.68-.33.11 0 .22.05.56.33 0 .11-.17.17-.45.23Zm-1.68-.12c-.06-.05-.06-.05-.06-.11 0-.05.06-.11.17-.17 0 .12 0 .17.11.17Zm2.85 0c-.11 0-.22 0-.33-.05 0-.06.11-.17.28-.23.05 0 .11.06.17.06l.16.11c-.11.06-.22.11-.28.11Zm14.17 8.8c-.11.05-.22.05-.28.05-.17 0-.28 0-.33-.11v-.22h.16c.06-.06.23-.06.51-.06l.17.17c-.06 0-.12.05-.23.17Zm-4.93 3.64v-.12l.45.06v.17c-.22.05-.33.11-.45 0-.05-.06-.05-.11-.05-.11Zm-.33.84c0-.06.11-.06.22-.06.06 0 .11 0 .23.06.05 0 .11.05.22.05-.11.11-.28.23-.45.23h-.67c.28-.17.45-.23.45-.28Zm.33 1.17h-.11c0-.05-.05-.05-.11-.05.06 0 .11-.06.22-.06.06-.06.12-.11.17-.11.11-.11.23-.17.28-.17.17 0 .23.06.23.11 0 .06.11.17.22.23-.11 0-.11 0-.11.05h-.23c-.05 0-.11-.05-.22-.11-.11.06-.22.11-.34.11Zm.96 1.01c-.06.11-.17.17-.28.22-.12-.05-.23-.11-.23-.28 0-.11.06-.16.11-.22l.56.06Zm-2.97.56-.17-.11h-.11s.05-.06.11-.06c.06-.05.17-.05.22-.05Zm7.05.5v.28h-.16c-.06 0-.17.06-.17.06-.11-.34-.06-.34-.23-.5.12-.12.23-.17.28-.17h.12c0 .05.05.05.05.05h.11c0 .12.06.17 0 .28Zm-6.16.4c-.16 0-.22-.12-.22-.23 0-.05 0-.22.28-.22 0 0 .17 0 .5.05v-.05h.34v.11h-.34v-.06c-.05.06-.16.06-.28.17-.11.11-.16.17-.28.23Zm.68.33c-.12 0-.28-.05-.34-.05-.11.05.34-.4.56-.4.06 0 .11.06.17.06.05.06.11.06.17.06-.06.22-.23.33-.56.33Zm-.68.39-.11-.05.06-.06.11.06Zm5.66 1.52c.06 0 .17 0 .28.05v.06s0 .05.06.05c-.12.06-.23.12-.34.12h-.22c-.06-.12-.12-.23-.23-.28-.05-.06-.11-.12-.11-.23 0 0 .06-.11.06-.28 0 0 .05-.11.11-.33 0-.06 0-.06.05-.06 0 0 .06-.06.06-.11.06 0 .06 0 .11-.06-.05-.17-.11-.28-.11-.33.11 0 .22-.06.28 0h.28v.16c-.06.06-.06.12-.06.23 0 .05.06.11.12.17 0 .05.05.16.11.22-.06.06-.11.06-.23.11-.16.06-.33.17-.39.28 0 .06 0 .11-.11.17.06.06.17.11.28.06Zm-.95.44-.34-.05.34-.06Zm-.28 10.98v1.79h-.06v.11c0 .12 0 .17-.05.17-.06.06-.06.17-.06.17h-.22c-.12 0-.23-.06-.4-.17v-.22c-.05 0-.11 0-.22-.06-.06 0-.06-.05 0-.11s.06-.11.06-.11v-.45c.05-.22 0-.34-.06-.5-.06 0-.06-.06-.06-.06-.05-.06-.05-.11-.05-.17 0-.05 0-.11.05-.17.12 0 .12-.05.12-.11 0-.28 0-.84.05-1.68.06-.61.06-1.23 0-1.73 0-.06-.05-.12-.05-.17-.12-.11-.12-.11-.12-.23l.06-.05c.06-.06.06-.11.11-.11 0-.23 0-.45-.05-.62v-3.47h.95c0 .11-.06.28-.06.45-.05.22-.05.39 0 .5 0 .17 0 .28.06.45.05.17.05.28 0 .45 0 .05-.06.05-.06.16-.05.06-.05.12-.05.12 0 .05 0 .11.05.22.06.17 0 .34-.05.45-.06 0-.06.11-.06.17 0 .05 0 .11.06.16 0 0 .05.06.05.12v1.56c.06.12.06.17.06.34 0 .34 0 .56-.06.84v1.4c.06 0 .11.06.11.11 0 .17 0 .34-.05.45Z" transform="translate(128.412 279.566)"/></svg>